<mxfile host="Electron" agent="Mozilla/5.0 (Windows NT 10.0; Win64; x64) AppleWebKit/537.36 (KHTML, like Gecko) draw.io/24.7.17 Chrome/128.0.6613.36 Electron/32.0.1 Safari/537.36" version="24.7.17">
  <diagram name="Page-1" id="7qOaJB9PMsS7-qoNzVWl">
    <mxGraphModel dx="2762" dy="1115" grid="1" gridSize="10" guides="1" tooltips="1" connect="1" arrows="1" fold="1" page="1" pageScale="1" pageWidth="850" pageHeight="1100" math="0" shadow="0">
      <root>
        <mxCell id="0" />
        <mxCell id="1" parent="0" />
        <mxCell id="7OrvbcCntl593sybiv5M-107" value="png_gfx" style="shape=module;align=left;spacingLeft=20;align=center;verticalAlign=top;whiteSpace=wrap;html=1;" parent="1" vertex="1">
          <mxGeometry x="1192.5" y="1150" width="295" height="130" as="geometry" />
        </mxCell>
        <mxCell id="7OrvbcCntl593sybiv5M-106" value="sfml_gfx" style="shape=module;align=left;spacingLeft=20;align=center;verticalAlign=top;whiteSpace=wrap;html=1;" parent="1" vertex="1">
          <mxGeometry x="850" y="1110" width="260" height="130" as="geometry" />
        </mxCell>
        <mxCell id="7OrvbcCntl593sybiv5M-105" value="libmedia" style="shape=module;align=left;spacingLeft=20;align=center;verticalAlign=top;whiteSpace=wrap;html=1;" parent="1" vertex="1">
          <mxGeometry x="1550" y="1740" width="280" height="210" as="geometry" />
        </mxCell>
        <mxCell id="7OrvbcCntl593sybiv5M-43" value="Flyables" style="shape=module;align=left;spacingLeft=20;align=center;verticalAlign=top;whiteSpace=wrap;html=1;" parent="1" vertex="1">
          <mxGeometry x="590" y="580" width="290" height="120" as="geometry" />
        </mxCell>
        <mxCell id="7OrvbcCntl593sybiv5M-42" value="ducks_lib" style="shape=module;align=left;spacingLeft=20;align=center;verticalAlign=top;whiteSpace=wrap;html=1;" parent="1" vertex="1">
          <mxGeometry x="260" y="750" width="540" height="320" as="geometry" />
        </mxCell>
        <mxCell id="0s136Buh3HI4MueRSp4b-1" value="IDrawable" style="swimlane;fontStyle=3;align=center;verticalAlign=top;childLayout=stackLayout;horizontal=1;startSize=26;horizontalStack=0;resizeParent=1;resizeParentMax=0;resizeLast=0;collapsible=1;marginBottom=0;whiteSpace=wrap;html=1;" parent="1" vertex="1">
          <mxGeometry x="345" y="310" width="160" height="52" as="geometry" />
        </mxCell>
        <mxCell id="7OrvbcCntl593sybiv5M-7" value="+ Draw()" style="text;strokeColor=none;fillColor=none;align=left;verticalAlign=top;spacingLeft=4;spacingRight=4;overflow=hidden;rotatable=0;points=[[0,0.5],[1,0.5]];portConstraint=eastwest;whiteSpace=wrap;html=1;fontStyle=2" parent="0s136Buh3HI4MueRSp4b-1" vertex="1">
          <mxGeometry y="26" width="160" height="26" as="geometry" />
        </mxCell>
        <mxCell id="7OrvbcCntl593sybiv5M-1" value="Dog" style="swimlane;fontStyle=1;align=center;verticalAlign=top;childLayout=stackLayout;horizontal=1;startSize=26;horizontalStack=0;resizeParent=1;resizeParentMax=0;resizeLast=0;collapsible=1;marginBottom=0;whiteSpace=wrap;html=1;" parent="1" vertex="1">
          <mxGeometry x="250" y="440" width="160" height="104" as="geometry" />
        </mxCell>
        <mxCell id="7OrvbcCntl593sybiv5M-18" value="+ Draw()" style="text;strokeColor=none;fillColor=none;align=left;verticalAlign=top;spacingLeft=4;spacingRight=4;overflow=hidden;rotatable=0;points=[[0,0.5],[1,0.5]];portConstraint=eastwest;whiteSpace=wrap;html=1;fontStyle=0" parent="7OrvbcCntl593sybiv5M-1" vertex="1">
          <mxGeometry y="26" width="160" height="26" as="geometry" />
        </mxCell>
        <mxCell id="7OrvbcCntl593sybiv5M-2" value="+ Bark()" style="text;strokeColor=none;fillColor=none;align=left;verticalAlign=top;spacingLeft=4;spacingRight=4;overflow=hidden;rotatable=0;points=[[0,0.5],[1,0.5]];portConstraint=eastwest;whiteSpace=wrap;html=1;" parent="7OrvbcCntl593sybiv5M-1" vertex="1">
          <mxGeometry y="52" width="160" height="26" as="geometry" />
        </mxCell>
        <mxCell id="7OrvbcCntl593sybiv5M-6" value="+ Serve()" style="text;strokeColor=none;fillColor=none;align=left;verticalAlign=top;spacingLeft=4;spacingRight=4;overflow=hidden;rotatable=0;points=[[0,0.5],[1,0.5]];portConstraint=eastwest;whiteSpace=wrap;html=1;" parent="7OrvbcCntl593sybiv5M-1" vertex="1">
          <mxGeometry y="78" width="160" height="26" as="geometry" />
        </mxCell>
        <mxCell id="7OrvbcCntl593sybiv5M-5" value="" style="endArrow=block;dashed=1;endFill=0;endSize=12;html=1;rounded=0;" parent="1" source="7OrvbcCntl593sybiv5M-1" target="0s136Buh3HI4MueRSp4b-1" edge="1">
          <mxGeometry width="160" relative="1" as="geometry">
            <mxPoint x="340" y="390" as="sourcePoint" />
            <mxPoint x="500" y="390" as="targetPoint" />
          </mxGeometry>
        </mxCell>
        <mxCell id="7OrvbcCntl593sybiv5M-9" value="Painter" style="swimlane;fontStyle=1;align=center;verticalAlign=top;childLayout=stackLayout;horizontal=1;startSize=26;horizontalStack=0;resizeParent=1;resizeParentMax=0;resizeLast=0;collapsible=1;marginBottom=0;whiteSpace=wrap;html=1;" parent="1" vertex="1">
          <mxGeometry x="20" y="320" width="160" height="52" as="geometry" />
        </mxCell>
        <mxCell id="7OrvbcCntl593sybiv5M-12" value="- m_drawbles:[IDrawable]" style="text;strokeColor=none;fillColor=none;align=left;verticalAlign=top;spacingLeft=4;spacingRight=4;overflow=hidden;rotatable=0;points=[[0,0.5],[1,0.5]];portConstraint=eastwest;whiteSpace=wrap;html=1;" parent="7OrvbcCntl593sybiv5M-9" vertex="1">
          <mxGeometry y="26" width="160" height="26" as="geometry" />
        </mxCell>
        <mxCell id="7OrvbcCntl593sybiv5M-13" value="" style="endArrow=diamondThin;endFill=0;endSize=24;html=1;rounded=0;" parent="1" source="0s136Buh3HI4MueRSp4b-1" target="7OrvbcCntl593sybiv5M-9" edge="1">
          <mxGeometry width="160" relative="1" as="geometry">
            <mxPoint x="170" y="590" as="sourcePoint" />
            <mxPoint x="330" y="590" as="targetPoint" />
          </mxGeometry>
        </mxCell>
        <mxCell id="7OrvbcCntl593sybiv5M-14" value="Cat" style="swimlane;fontStyle=1;align=center;verticalAlign=top;childLayout=stackLayout;horizontal=1;startSize=26;horizontalStack=0;resizeParent=1;resizeParentMax=0;resizeLast=0;collapsible=1;marginBottom=0;whiteSpace=wrap;html=1;" parent="1" vertex="1">
          <mxGeometry x="520" y="440" width="160" height="104" as="geometry" />
        </mxCell>
        <mxCell id="7OrvbcCntl593sybiv5M-19" value="+ Draw()" style="text;strokeColor=none;fillColor=none;align=left;verticalAlign=top;spacingLeft=4;spacingRight=4;overflow=hidden;rotatable=0;points=[[0,0.5],[1,0.5]];portConstraint=eastwest;whiteSpace=wrap;html=1;fontStyle=0" parent="7OrvbcCntl593sybiv5M-14" vertex="1">
          <mxGeometry y="26" width="160" height="26" as="geometry" />
        </mxCell>
        <mxCell id="7OrvbcCntl593sybiv5M-15" value="+ Meow()" style="text;strokeColor=none;fillColor=none;align=left;verticalAlign=top;spacingLeft=4;spacingRight=4;overflow=hidden;rotatable=0;points=[[0,0.5],[1,0.5]];portConstraint=eastwest;whiteSpace=wrap;html=1;" parent="7OrvbcCntl593sybiv5M-14" vertex="1">
          <mxGeometry y="52" width="160" height="26" as="geometry" />
        </mxCell>
        <mxCell id="7OrvbcCntl593sybiv5M-16" value="+ CatchMices()" style="text;strokeColor=none;fillColor=none;align=left;verticalAlign=top;spacingLeft=4;spacingRight=4;overflow=hidden;rotatable=0;points=[[0,0.5],[1,0.5]];portConstraint=eastwest;whiteSpace=wrap;html=1;" parent="7OrvbcCntl593sybiv5M-14" vertex="1">
          <mxGeometry y="78" width="160" height="26" as="geometry" />
        </mxCell>
        <mxCell id="7OrvbcCntl593sybiv5M-17" value="" style="endArrow=block;dashed=1;endFill=0;endSize=12;html=1;rounded=0;" parent="1" source="7OrvbcCntl593sybiv5M-14" target="0s136Buh3HI4MueRSp4b-1" edge="1">
          <mxGeometry width="160" relative="1" as="geometry">
            <mxPoint x="340" y="390" as="sourcePoint" />
            <mxPoint x="500" y="390" as="targetPoint" />
          </mxGeometry>
        </mxCell>
        <mxCell id="7OrvbcCntl593sybiv5M-20" value="Duck" style="swimlane;fontStyle=1;align=center;verticalAlign=top;childLayout=stackLayout;horizontal=1;startSize=26;horizontalStack=0;resizeParent=1;resizeParentMax=0;resizeLast=0;collapsible=1;marginBottom=0;whiteSpace=wrap;html=1;" parent="1" vertex="1">
          <mxGeometry x="320" y="960" width="160" height="52" as="geometry" />
        </mxCell>
        <mxCell id="7OrvbcCntl593sybiv5M-21" value="+ Draw(canvas:ICanvas)" style="text;strokeColor=none;fillColor=none;align=left;verticalAlign=top;spacingLeft=4;spacingRight=4;overflow=hidden;rotatable=0;points=[[0,0.5],[1,0.5]];portConstraint=eastwest;whiteSpace=wrap;html=1;fontStyle=0" parent="7OrvbcCntl593sybiv5M-20" vertex="1">
          <mxGeometry y="26" width="160" height="26" as="geometry" />
        </mxCell>
        <mxCell id="7OrvbcCntl593sybiv5M-24" value="IDanceBehavior" style="swimlane;fontStyle=1;align=center;verticalAlign=top;childLayout=stackLayout;horizontal=1;startSize=26;horizontalStack=0;resizeParent=1;resizeParentMax=0;resizeLast=0;collapsible=1;marginBottom=0;whiteSpace=wrap;html=1;" parent="1" vertex="1">
          <mxGeometry x="320" y="790" width="160" height="78" as="geometry" />
        </mxCell>
        <mxCell id="7OrvbcCntl593sybiv5M-25" value="Dance()" style="text;strokeColor=none;fillColor=none;align=left;verticalAlign=top;spacingLeft=4;spacingRight=4;overflow=hidden;rotatable=0;points=[[0,0.5],[1,0.5]];portConstraint=eastwest;whiteSpace=wrap;html=1;" parent="7OrvbcCntl593sybiv5M-24" vertex="1">
          <mxGeometry y="26" width="160" height="26" as="geometry" />
        </mxCell>
        <mxCell id="7OrvbcCntl593sybiv5M-41" value="GetDanceName()" style="text;strokeColor=none;fillColor=none;align=left;verticalAlign=top;spacingLeft=4;spacingRight=4;overflow=hidden;rotatable=0;points=[[0,0.5],[1,0.5]];portConstraint=eastwest;whiteSpace=wrap;html=1;" parent="7OrvbcCntl593sybiv5M-24" vertex="1">
          <mxGeometry y="52" width="160" height="26" as="geometry" />
        </mxCell>
        <mxCell id="7OrvbcCntl593sybiv5M-28" value="IQuackBehavior" style="swimlane;fontStyle=1;align=center;verticalAlign=top;childLayout=stackLayout;horizontal=1;startSize=26;horizontalStack=0;resizeParent=1;resizeParentMax=0;resizeLast=0;collapsible=1;marginBottom=0;whiteSpace=wrap;html=1;" parent="1" vertex="1">
          <mxGeometry x="580" y="980" width="160" height="52" as="geometry" />
        </mxCell>
        <mxCell id="7OrvbcCntl593sybiv5M-29" value="Quack()" style="text;strokeColor=none;fillColor=none;align=left;verticalAlign=top;spacingLeft=4;spacingRight=4;overflow=hidden;rotatable=0;points=[[0,0.5],[1,0.5]];portConstraint=eastwest;whiteSpace=wrap;html=1;" parent="7OrvbcCntl593sybiv5M-28" vertex="1">
          <mxGeometry y="26" width="160" height="26" as="geometry" />
        </mxCell>
        <mxCell id="7OrvbcCntl593sybiv5M-30" value="IFlyBehavior" style="swimlane;fontStyle=1;align=center;verticalAlign=top;childLayout=stackLayout;horizontal=1;startSize=26;horizontalStack=0;resizeParent=1;resizeParentMax=0;resizeLast=0;collapsible=1;marginBottom=0;whiteSpace=wrap;html=1;" parent="1" vertex="1">
          <mxGeometry x="570" y="790" width="160" height="52" as="geometry" />
        </mxCell>
        <mxCell id="7OrvbcCntl593sybiv5M-31" value="Fly()" style="text;strokeColor=none;fillColor=none;align=left;verticalAlign=top;spacingLeft=4;spacingRight=4;overflow=hidden;rotatable=0;points=[[0,0.5],[1,0.5]];portConstraint=eastwest;whiteSpace=wrap;html=1;" parent="7OrvbcCntl593sybiv5M-30" vertex="1">
          <mxGeometry y="26" width="160" height="26" as="geometry" />
        </mxCell>
        <mxCell id="7OrvbcCntl593sybiv5M-33" value="" style="endArrow=diamondThin;endFill=1;endSize=24;html=1;rounded=0;" parent="1" source="7OrvbcCntl593sybiv5M-24" target="7OrvbcCntl593sybiv5M-20" edge="1">
          <mxGeometry width="160" relative="1" as="geometry">
            <mxPoint x="160" y="860" as="sourcePoint" />
            <mxPoint x="320" y="860" as="targetPoint" />
          </mxGeometry>
        </mxCell>
        <mxCell id="7OrvbcCntl593sybiv5M-34" value="" style="endArrow=diamondThin;endFill=1;endSize=24;html=1;rounded=0;" parent="1" source="7OrvbcCntl593sybiv5M-28" target="7OrvbcCntl593sybiv5M-20" edge="1">
          <mxGeometry width="160" relative="1" as="geometry">
            <mxPoint x="160" y="860" as="sourcePoint" />
            <mxPoint x="320" y="860" as="targetPoint" />
          </mxGeometry>
        </mxCell>
        <mxCell id="7OrvbcCntl593sybiv5M-35" value="" style="endArrow=diamondThin;endFill=1;endSize=24;html=1;rounded=0;" parent="1" source="7OrvbcCntl593sybiv5M-30" target="7OrvbcCntl593sybiv5M-20" edge="1">
          <mxGeometry width="160" relative="1" as="geometry">
            <mxPoint x="160" y="860" as="sourcePoint" />
            <mxPoint x="320" y="860" as="targetPoint" />
          </mxGeometry>
        </mxCell>
        <mxCell id="7OrvbcCntl593sybiv5M-36" value="IQuackableFlyableDancer" style="swimlane;fontStyle=1;align=center;verticalAlign=top;childLayout=stackLayout;horizontal=1;startSize=26;horizontalStack=0;resizeParent=1;resizeParentMax=0;resizeLast=0;collapsible=1;marginBottom=0;whiteSpace=wrap;html=1;" parent="1" vertex="1">
          <mxGeometry x="1020" y="620" width="205" height="104" as="geometry" />
        </mxCell>
        <mxCell id="7OrvbcCntl593sybiv5M-39" value="Dance()" style="text;strokeColor=none;fillColor=none;align=left;verticalAlign=top;spacingLeft=4;spacingRight=4;overflow=hidden;rotatable=0;points=[[0,0.5],[1,0.5]];portConstraint=eastwest;whiteSpace=wrap;html=1;" parent="7OrvbcCntl593sybiv5M-36" vertex="1">
          <mxGeometry y="26" width="205" height="26" as="geometry" />
        </mxCell>
        <mxCell id="7OrvbcCntl593sybiv5M-38" value="Quack()" style="text;strokeColor=none;fillColor=none;align=left;verticalAlign=top;spacingLeft=4;spacingRight=4;overflow=hidden;rotatable=0;points=[[0,0.5],[1,0.5]];portConstraint=eastwest;whiteSpace=wrap;html=1;" parent="7OrvbcCntl593sybiv5M-36" vertex="1">
          <mxGeometry y="52" width="205" height="26" as="geometry" />
        </mxCell>
        <mxCell id="7OrvbcCntl593sybiv5M-37" value="Fly()" style="text;strokeColor=none;fillColor=none;align=left;verticalAlign=top;spacingLeft=4;spacingRight=4;overflow=hidden;rotatable=0;points=[[0,0.5],[1,0.5]];portConstraint=eastwest;whiteSpace=wrap;html=1;" parent="7OrvbcCntl593sybiv5M-36" vertex="1">
          <mxGeometry y="78" width="205" height="26" as="geometry" />
        </mxCell>
        <mxCell id="7OrvbcCntl593sybiv5M-44" value="ducs app" style="shape=module;align=left;spacingLeft=20;align=center;verticalAlign=top;whiteSpace=wrap;html=1;" parent="1" vertex="1">
          <mxGeometry x="427.5" y="1213" width="345" height="160" as="geometry" />
        </mxCell>
        <mxCell id="7OrvbcCntl593sybiv5M-45" value="Main" style="swimlane;fontStyle=1;align=center;verticalAlign=top;childLayout=stackLayout;horizontal=1;startSize=26;horizontalStack=0;resizeParent=1;resizeParentMax=0;resizeLast=0;collapsible=1;marginBottom=0;whiteSpace=wrap;html=1;" parent="1" vertex="1">
          <mxGeometry x="520.5" y="1263" width="160" height="86" as="geometry" />
        </mxCell>
        <mxCell id="7OrvbcCntl593sybiv5M-46" value="+ field: type" style="text;strokeColor=none;fillColor=none;align=left;verticalAlign=top;spacingLeft=4;spacingRight=4;overflow=hidden;rotatable=0;points=[[0,0.5],[1,0.5]];portConstraint=eastwest;whiteSpace=wrap;html=1;" parent="7OrvbcCntl593sybiv5M-45" vertex="1">
          <mxGeometry y="26" width="160" height="26" as="geometry" />
        </mxCell>
        <mxCell id="7OrvbcCntl593sybiv5M-47" value="" style="line;strokeWidth=1;fillColor=none;align=left;verticalAlign=middle;spacingTop=-1;spacingLeft=3;spacingRight=3;rotatable=0;labelPosition=right;points=[];portConstraint=eastwest;strokeColor=inherit;" parent="7OrvbcCntl593sybiv5M-45" vertex="1">
          <mxGeometry y="52" width="160" height="8" as="geometry" />
        </mxCell>
        <mxCell id="7OrvbcCntl593sybiv5M-48" value="+ method(type): type" style="text;strokeColor=none;fillColor=none;align=left;verticalAlign=top;spacingLeft=4;spacingRight=4;overflow=hidden;rotatable=0;points=[[0,0.5],[1,0.5]];portConstraint=eastwest;whiteSpace=wrap;html=1;" parent="7OrvbcCntl593sybiv5M-45" vertex="1">
          <mxGeometry y="60" width="160" height="26" as="geometry" />
        </mxCell>
        <mxCell id="7OrvbcCntl593sybiv5M-49" value="Use" style="endArrow=open;endSize=12;dashed=1;html=1;rounded=0;" parent="1" source="7OrvbcCntl593sybiv5M-45" target="7OrvbcCntl593sybiv5M-20" edge="1">
          <mxGeometry x="-0.0006" width="160" relative="1" as="geometry">
            <mxPoint x="480" y="1180" as="sourcePoint" />
            <mxPoint x="640" y="1180" as="targetPoint" />
            <mxPoint as="offset" />
          </mxGeometry>
        </mxCell>
        <mxCell id="7OrvbcCntl593sybiv5M-50" value="shooting_gallery" style="shape=module;align=left;spacingLeft=20;align=center;verticalAlign=top;whiteSpace=wrap;html=1;" parent="1" vertex="1">
          <mxGeometry x="820" y="1370" width="345" height="160" as="geometry" />
        </mxCell>
        <mxCell id="7OrvbcCntl593sybiv5M-51" value="Main" style="swimlane;fontStyle=1;align=center;verticalAlign=top;childLayout=stackLayout;horizontal=1;startSize=26;horizontalStack=0;resizeParent=1;resizeParentMax=0;resizeLast=0;collapsible=1;marginBottom=0;whiteSpace=wrap;html=1;" parent="1" vertex="1">
          <mxGeometry x="940" y="1420" width="160" height="52" as="geometry" />
        </mxCell>
        <mxCell id="7OrvbcCntl593sybiv5M-52" value="+ field: type" style="text;strokeColor=none;fillColor=none;align=left;verticalAlign=top;spacingLeft=4;spacingRight=4;overflow=hidden;rotatable=0;points=[[0,0.5],[1,0.5]];portConstraint=eastwest;whiteSpace=wrap;html=1;" parent="7OrvbcCntl593sybiv5M-51" vertex="1">
          <mxGeometry y="26" width="160" height="26" as="geometry" />
        </mxCell>
        <mxCell id="7OrvbcCntl593sybiv5M-55" value="Use" style="endArrow=open;endSize=12;dashed=1;html=1;rounded=0;" parent="1" source="7OrvbcCntl593sybiv5M-51" target="7OrvbcCntl593sybiv5M-20" edge="1">
          <mxGeometry x="-0.0006" width="160" relative="1" as="geometry">
            <mxPoint x="480" y="1180" as="sourcePoint" />
            <mxPoint x="640" y="1180" as="targetPoint" />
            <mxPoint as="offset" />
          </mxGeometry>
        </mxCell>
        <mxCell id="7OrvbcCntl593sybiv5M-56" value="gfx" style="shape=module;align=left;spacingLeft=20;align=center;verticalAlign=top;whiteSpace=wrap;html=1;" parent="1" vertex="1">
          <mxGeometry x="850" y="750" width="440" height="340" as="geometry" />
        </mxCell>
        <mxCell id="7OrvbcCntl593sybiv5M-57" value="ICanvas" style="swimlane;fontStyle=1;align=center;verticalAlign=top;childLayout=stackLayout;horizontal=1;startSize=26;horizontalStack=0;resizeParent=1;resizeParentMax=0;resizeLast=0;collapsible=1;marginBottom=0;whiteSpace=wrap;html=1;" parent="1" vertex="1">
          <mxGeometry x="970" y="790" width="160" height="52" as="geometry" />
        </mxCell>
        <mxCell id="7OrvbcCntl593sybiv5M-58" value="DrawLine()" style="text;strokeColor=none;fillColor=none;align=left;verticalAlign=top;spacingLeft=4;spacingRight=4;overflow=hidden;rotatable=0;points=[[0,0.5],[1,0.5]];portConstraint=eastwest;whiteSpace=wrap;html=1;" parent="7OrvbcCntl593sybiv5M-57" vertex="1">
          <mxGeometry y="26" width="160" height="26" as="geometry" />
        </mxCell>
        <mxCell id="7OrvbcCntl593sybiv5M-61" value="SFMLCanvas" style="swimlane;fontStyle=1;align=center;verticalAlign=top;childLayout=stackLayout;horizontal=1;startSize=26;horizontalStack=0;resizeParent=1;resizeParentMax=0;resizeLast=0;collapsible=1;marginBottom=0;whiteSpace=wrap;html=1;" parent="1" vertex="1">
          <mxGeometry x="915" y="1132" width="160" height="86" as="geometry" />
        </mxCell>
        <mxCell id="7OrvbcCntl593sybiv5M-62" value="+ field: type" style="text;strokeColor=none;fillColor=none;align=left;verticalAlign=top;spacingLeft=4;spacingRight=4;overflow=hidden;rotatable=0;points=[[0,0.5],[1,0.5]];portConstraint=eastwest;whiteSpace=wrap;html=1;" parent="7OrvbcCntl593sybiv5M-61" vertex="1">
          <mxGeometry y="26" width="160" height="26" as="geometry" />
        </mxCell>
        <mxCell id="7OrvbcCntl593sybiv5M-63" value="" style="line;strokeWidth=1;fillColor=none;align=left;verticalAlign=middle;spacingTop=-1;spacingLeft=3;spacingRight=3;rotatable=0;labelPosition=right;points=[];portConstraint=eastwest;strokeColor=inherit;" parent="7OrvbcCntl593sybiv5M-61" vertex="1">
          <mxGeometry y="52" width="160" height="8" as="geometry" />
        </mxCell>
        <mxCell id="7OrvbcCntl593sybiv5M-64" value="+ method(type): type" style="text;strokeColor=none;fillColor=none;align=left;verticalAlign=top;spacingLeft=4;spacingRight=4;overflow=hidden;rotatable=0;points=[[0,0.5],[1,0.5]];portConstraint=eastwest;whiteSpace=wrap;html=1;" parent="7OrvbcCntl593sybiv5M-61" vertex="1">
          <mxGeometry y="60" width="160" height="26" as="geometry" />
        </mxCell>
        <mxCell id="7OrvbcCntl593sybiv5M-65" value="" style="endArrow=block;dashed=1;endFill=0;endSize=12;html=1;rounded=0;" parent="1" source="7OrvbcCntl593sybiv5M-61" target="7OrvbcCntl593sybiv5M-57" edge="1">
          <mxGeometry width="160" relative="1" as="geometry">
            <mxPoint x="1050" y="860" as="sourcePoint" />
            <mxPoint x="1210" y="860" as="targetPoint" />
          </mxGeometry>
        </mxCell>
        <mxCell id="7OrvbcCntl593sybiv5M-66" value="PNGCanvas" style="swimlane;fontStyle=1;align=center;verticalAlign=top;childLayout=stackLayout;horizontal=1;startSize=26;horizontalStack=0;resizeParent=1;resizeParentMax=0;resizeLast=0;collapsible=1;marginBottom=0;whiteSpace=wrap;html=1;" parent="1" vertex="1">
          <mxGeometry x="1260" y="1182" width="160" height="86" as="geometry" />
        </mxCell>
        <mxCell id="7OrvbcCntl593sybiv5M-67" value="+ field: type" style="text;strokeColor=none;fillColor=none;align=left;verticalAlign=top;spacingLeft=4;spacingRight=4;overflow=hidden;rotatable=0;points=[[0,0.5],[1,0.5]];portConstraint=eastwest;whiteSpace=wrap;html=1;" parent="7OrvbcCntl593sybiv5M-66" vertex="1">
          <mxGeometry y="26" width="160" height="26" as="geometry" />
        </mxCell>
        <mxCell id="7OrvbcCntl593sybiv5M-68" value="" style="line;strokeWidth=1;fillColor=none;align=left;verticalAlign=middle;spacingTop=-1;spacingLeft=3;spacingRight=3;rotatable=0;labelPosition=right;points=[];portConstraint=eastwest;strokeColor=inherit;" parent="7OrvbcCntl593sybiv5M-66" vertex="1">
          <mxGeometry y="52" width="160" height="8" as="geometry" />
        </mxCell>
        <mxCell id="7OrvbcCntl593sybiv5M-69" value="+ method(type): type" style="text;strokeColor=none;fillColor=none;align=left;verticalAlign=top;spacingLeft=4;spacingRight=4;overflow=hidden;rotatable=0;points=[[0,0.5],[1,0.5]];portConstraint=eastwest;whiteSpace=wrap;html=1;" parent="7OrvbcCntl593sybiv5M-66" vertex="1">
          <mxGeometry y="60" width="160" height="26" as="geometry" />
        </mxCell>
        <mxCell id="7OrvbcCntl593sybiv5M-70" value="" style="endArrow=block;dashed=1;endFill=0;endSize=12;html=1;rounded=0;" parent="1" source="7OrvbcCntl593sybiv5M-66" target="7OrvbcCntl593sybiv5M-57" edge="1">
          <mxGeometry width="160" relative="1" as="geometry">
            <mxPoint x="1050" y="860" as="sourcePoint" />
            <mxPoint x="1210" y="860" as="targetPoint" />
          </mxGeometry>
        </mxCell>
        <mxCell id="7OrvbcCntl593sybiv5M-71" value="Use" style="endArrow=open;endSize=12;dashed=1;html=1;rounded=0;" parent="1" source="7OrvbcCntl593sybiv5M-45" target="7OrvbcCntl593sybiv5M-61" edge="1">
          <mxGeometry width="160" relative="1" as="geometry">
            <mxPoint x="530" y="1150" as="sourcePoint" />
            <mxPoint x="690" y="1150" as="targetPoint" />
          </mxGeometry>
        </mxCell>
        <mxCell id="7OrvbcCntl593sybiv5M-72" value="Use" style="endArrow=open;endSize=12;dashed=1;html=1;rounded=0;" parent="1" source="7OrvbcCntl593sybiv5M-45" target="7OrvbcCntl593sybiv5M-66" edge="1">
          <mxGeometry width="160" relative="1" as="geometry">
            <mxPoint x="530" y="1150" as="sourcePoint" />
            <mxPoint x="690" y="1150" as="targetPoint" />
          </mxGeometry>
        </mxCell>
        <mxCell id="7OrvbcCntl593sybiv5M-73" value="sfml" style="shape=module;align=left;spacingLeft=20;align=center;verticalAlign=top;whiteSpace=wrap;html=1;" parent="1" vertex="1">
          <mxGeometry x="1320" y="750" width="300" height="160" as="geometry" />
        </mxCell>
        <mxCell id="7OrvbcCntl593sybiv5M-74" value="libpng" style="shape=module;align=left;spacingLeft=20;align=center;verticalAlign=top;whiteSpace=wrap;html=1;" parent="1" vertex="1">
          <mxGeometry x="1320" y="950" width="300" height="160" as="geometry" />
        </mxCell>
        <mxCell id="7OrvbcCntl593sybiv5M-75" value="Use" style="endArrow=open;endSize=12;dashed=1;html=1;rounded=0;" parent="1" source="7OrvbcCntl593sybiv5M-66" target="7OrvbcCntl593sybiv5M-74" edge="1">
          <mxGeometry width="160" relative="1" as="geometry">
            <mxPoint x="1190" y="1190" as="sourcePoint" />
            <mxPoint x="1350" y="1190" as="targetPoint" />
          </mxGeometry>
        </mxCell>
        <mxCell id="7OrvbcCntl593sybiv5M-76" value="Use" style="endArrow=open;endSize=12;dashed=1;html=1;rounded=0;" parent="1" source="7OrvbcCntl593sybiv5M-61" target="7OrvbcCntl593sybiv5M-73" edge="1">
          <mxGeometry width="160" relative="1" as="geometry">
            <mxPoint x="1190" y="1190" as="sourcePoint" />
            <mxPoint x="1350" y="1190" as="targetPoint" />
          </mxGeometry>
        </mxCell>
        <mxCell id="7OrvbcCntl593sybiv5M-77" value="Use" style="endArrow=open;endSize=12;dashed=1;html=1;rounded=0;" parent="1" source="7OrvbcCntl593sybiv5M-51" target="7OrvbcCntl593sybiv5M-61" edge="1">
          <mxGeometry x="-0.0006" width="160" relative="1" as="geometry">
            <mxPoint x="480" y="1180" as="sourcePoint" />
            <mxPoint x="640" y="1180" as="targetPoint" />
            <mxPoint as="offset" />
          </mxGeometry>
        </mxCell>
        <mxCell id="7OrvbcCntl593sybiv5M-82" value="libactivation" style="shape=module;align=left;spacingLeft=20;align=center;verticalAlign=top;whiteSpace=wrap;html=1;" parent="1" vertex="1">
          <mxGeometry x="1090" y="1530" width="280" height="150" as="geometry" />
        </mxCell>
        <mxCell id="7OrvbcCntl593sybiv5M-83" value="SerialNumberGenerator" style="swimlane;fontStyle=1;align=center;verticalAlign=top;childLayout=stackLayout;horizontal=1;startSize=26;horizontalStack=0;resizeParent=1;resizeParentMax=0;resizeLast=0;collapsible=1;marginBottom=0;whiteSpace=wrap;html=1;" parent="1" vertex="1">
          <mxGeometry x="1150" y="1570" width="160" height="86" as="geometry" />
        </mxCell>
        <mxCell id="7OrvbcCntl593sybiv5M-84" value="+ field: type" style="text;strokeColor=none;fillColor=none;align=left;verticalAlign=top;spacingLeft=4;spacingRight=4;overflow=hidden;rotatable=0;points=[[0,0.5],[1,0.5]];portConstraint=eastwest;whiteSpace=wrap;html=1;" parent="7OrvbcCntl593sybiv5M-83" vertex="1">
          <mxGeometry y="26" width="160" height="26" as="geometry" />
        </mxCell>
        <mxCell id="7OrvbcCntl593sybiv5M-85" value="" style="line;strokeWidth=1;fillColor=none;align=left;verticalAlign=middle;spacingTop=-1;spacingLeft=3;spacingRight=3;rotatable=0;labelPosition=right;points=[];portConstraint=eastwest;strokeColor=inherit;" parent="7OrvbcCntl593sybiv5M-83" vertex="1">
          <mxGeometry y="52" width="160" height="8" as="geometry" />
        </mxCell>
        <mxCell id="7OrvbcCntl593sybiv5M-86" value="+ method(type): type" style="text;strokeColor=none;fillColor=none;align=left;verticalAlign=top;spacingLeft=4;spacingRight=4;overflow=hidden;rotatable=0;points=[[0,0.5],[1,0.5]];portConstraint=eastwest;whiteSpace=wrap;html=1;" parent="7OrvbcCntl593sybiv5M-83" vertex="1">
          <mxGeometry y="60" width="160" height="26" as="geometry" />
        </mxCell>
        <mxCell id="7OrvbcCntl593sybiv5M-87" value="utils" style="shape=module;align=left;spacingLeft=20;align=center;verticalAlign=top;whiteSpace=wrap;html=1;" parent="1" vertex="1">
          <mxGeometry x="1430" y="1430" width="280" height="280" as="geometry" />
        </mxCell>
        <mxCell id="7OrvbcCntl593sybiv5M-88" value="MediaPlayer" style="swimlane;fontStyle=1;align=center;verticalAlign=top;childLayout=stackLayout;horizontal=1;startSize=26;horizontalStack=0;resizeParent=1;resizeParentMax=0;resizeLast=0;collapsible=1;marginBottom=0;whiteSpace=wrap;html=1;" parent="1" vertex="1">
          <mxGeometry x="1610" y="1804" width="160" height="86" as="geometry" />
        </mxCell>
        <mxCell id="7OrvbcCntl593sybiv5M-89" value="+ field: type" style="text;strokeColor=none;fillColor=none;align=left;verticalAlign=top;spacingLeft=4;spacingRight=4;overflow=hidden;rotatable=0;points=[[0,0.5],[1,0.5]];portConstraint=eastwest;whiteSpace=wrap;html=1;" parent="7OrvbcCntl593sybiv5M-88" vertex="1">
          <mxGeometry y="26" width="160" height="26" as="geometry" />
        </mxCell>
        <mxCell id="7OrvbcCntl593sybiv5M-90" value="" style="line;strokeWidth=1;fillColor=none;align=left;verticalAlign=middle;spacingTop=-1;spacingLeft=3;spacingRight=3;rotatable=0;labelPosition=right;points=[];portConstraint=eastwest;strokeColor=inherit;" parent="7OrvbcCntl593sybiv5M-88" vertex="1">
          <mxGeometry y="52" width="160" height="8" as="geometry" />
        </mxCell>
        <mxCell id="7OrvbcCntl593sybiv5M-91" value="+ method(type): type" style="text;strokeColor=none;fillColor=none;align=left;verticalAlign=top;spacingLeft=4;spacingRight=4;overflow=hidden;rotatable=0;points=[[0,0.5],[1,0.5]];portConstraint=eastwest;whiteSpace=wrap;html=1;" parent="7OrvbcCntl593sybiv5M-88" vertex="1">
          <mxGeometry y="60" width="160" height="26" as="geometry" />
        </mxCell>
        <mxCell id="7OrvbcCntl593sybiv5M-92" value="libffmpeg" style="shape=module;align=left;spacingLeft=20;align=center;verticalAlign=top;whiteSpace=wrap;html=1;" parent="1" vertex="1">
          <mxGeometry x="1780" y="1430" width="280" height="170" as="geometry" />
        </mxCell>
        <mxCell id="7OrvbcCntl593sybiv5M-93" value="" style="endArrow=diamondThin;endFill=1;endSize=24;html=1;rounded=0;" parent="1" source="7OrvbcCntl593sybiv5M-92" target="7OrvbcCntl593sybiv5M-88" edge="1">
          <mxGeometry width="160" relative="1" as="geometry">
            <mxPoint x="1190" y="1750" as="sourcePoint" />
            <mxPoint x="1350" y="1750" as="targetPoint" />
          </mxGeometry>
        </mxCell>
        <mxCell id="7OrvbcCntl593sybiv5M-94" value="keygen" style="shape=module;align=left;spacingLeft=20;align=center;verticalAlign=top;whiteSpace=wrap;html=1;" parent="1" vertex="1">
          <mxGeometry x="1095" y="1740" width="280" height="150" as="geometry" />
        </mxCell>
        <mxCell id="7OrvbcCntl593sybiv5M-95" value="Main" style="swimlane;fontStyle=1;align=center;verticalAlign=top;childLayout=stackLayout;horizontal=1;startSize=26;horizontalStack=0;resizeParent=1;resizeParentMax=0;resizeLast=0;collapsible=1;marginBottom=0;whiteSpace=wrap;html=1;" parent="1" vertex="1">
          <mxGeometry x="1185" y="1780" width="160" height="86" as="geometry" />
        </mxCell>
        <mxCell id="7OrvbcCntl593sybiv5M-96" value="+ field: type" style="text;strokeColor=none;fillColor=none;align=left;verticalAlign=top;spacingLeft=4;spacingRight=4;overflow=hidden;rotatable=0;points=[[0,0.5],[1,0.5]];portConstraint=eastwest;whiteSpace=wrap;html=1;" parent="7OrvbcCntl593sybiv5M-95" vertex="1">
          <mxGeometry y="26" width="160" height="26" as="geometry" />
        </mxCell>
        <mxCell id="7OrvbcCntl593sybiv5M-97" value="" style="line;strokeWidth=1;fillColor=none;align=left;verticalAlign=middle;spacingTop=-1;spacingLeft=3;spacingRight=3;rotatable=0;labelPosition=right;points=[];portConstraint=eastwest;strokeColor=inherit;" parent="7OrvbcCntl593sybiv5M-95" vertex="1">
          <mxGeometry y="52" width="160" height="8" as="geometry" />
        </mxCell>
        <mxCell id="7OrvbcCntl593sybiv5M-98" value="+ method(type): type" style="text;strokeColor=none;fillColor=none;align=left;verticalAlign=top;spacingLeft=4;spacingRight=4;overflow=hidden;rotatable=0;points=[[0,0.5],[1,0.5]];portConstraint=eastwest;whiteSpace=wrap;html=1;" parent="7OrvbcCntl593sybiv5M-95" vertex="1">
          <mxGeometry y="60" width="160" height="26" as="geometry" />
        </mxCell>
        <mxCell id="7OrvbcCntl593sybiv5M-99" value="" style="endArrow=diamondThin;endFill=1;endSize=24;html=1;rounded=0;" parent="1" source="7OrvbcCntl593sybiv5M-83" target="7OrvbcCntl593sybiv5M-95" edge="1">
          <mxGeometry width="160" relative="1" as="geometry">
            <mxPoint x="1000" y="1700" as="sourcePoint" />
            <mxPoint x="1160" y="1700" as="targetPoint" />
          </mxGeometry>
        </mxCell>
        <mxCell id="7OrvbcCntl593sybiv5M-100" value="" style="endArrow=diamondThin;endFill=1;endSize=24;html=1;rounded=0;" parent="1" source="7OrvbcCntl593sybiv5M-101" target="7OrvbcCntl593sybiv5M-83" edge="1">
          <mxGeometry width="160" relative="1" as="geometry">
            <mxPoint x="1530" y="1680" as="sourcePoint" />
            <mxPoint x="1690" y="1680" as="targetPoint" />
          </mxGeometry>
        </mxCell>
        <mxCell id="7OrvbcCntl593sybiv5M-101" value="StringUtils" style="swimlane;fontStyle=1;align=center;verticalAlign=top;childLayout=stackLayout;horizontal=1;startSize=26;horizontalStack=0;resizeParent=1;resizeParentMax=0;resizeLast=0;collapsible=1;marginBottom=0;whiteSpace=wrap;html=1;" parent="1" vertex="1">
          <mxGeometry x="1480" y="1514" width="160" height="86" as="geometry" />
        </mxCell>
        <mxCell id="7OrvbcCntl593sybiv5M-102" value="+ field: type" style="text;strokeColor=none;fillColor=none;align=left;verticalAlign=top;spacingLeft=4;spacingRight=4;overflow=hidden;rotatable=0;points=[[0,0.5],[1,0.5]];portConstraint=eastwest;whiteSpace=wrap;html=1;" parent="7OrvbcCntl593sybiv5M-101" vertex="1">
          <mxGeometry y="26" width="160" height="26" as="geometry" />
        </mxCell>
        <mxCell id="7OrvbcCntl593sybiv5M-103" value="" style="line;strokeWidth=1;fillColor=none;align=left;verticalAlign=middle;spacingTop=-1;spacingLeft=3;spacingRight=3;rotatable=0;labelPosition=right;points=[];portConstraint=eastwest;strokeColor=inherit;" parent="7OrvbcCntl593sybiv5M-101" vertex="1">
          <mxGeometry y="52" width="160" height="8" as="geometry" />
        </mxCell>
        <mxCell id="7OrvbcCntl593sybiv5M-104" value="+ method(type): type" style="text;strokeColor=none;fillColor=none;align=left;verticalAlign=top;spacingLeft=4;spacingRight=4;overflow=hidden;rotatable=0;points=[[0,0.5],[1,0.5]];portConstraint=eastwest;whiteSpace=wrap;html=1;" parent="7OrvbcCntl593sybiv5M-101" vertex="1">
          <mxGeometry y="60" width="160" height="26" as="geometry" />
        </mxCell>
        <mxCell id="7OrvbcCntl593sybiv5M-108" value="Use" style="endArrow=open;endSize=12;dashed=1;html=1;rounded=0;" parent="1" source="7OrvbcCntl593sybiv5M-20" target="7OrvbcCntl593sybiv5M-57" edge="1">
          <mxGeometry width="160" relative="1" as="geometry">
            <mxPoint x="570" y="940" as="sourcePoint" />
            <mxPoint x="730" y="940" as="targetPoint" />
          </mxGeometry>
        </mxCell>
        <mxCell id="7OrvbcCntl593sybiv5M-109" value="Parent" style="swimlane;fontStyle=3;align=center;verticalAlign=top;childLayout=stackLayout;horizontal=1;startSize=26;horizontalStack=0;resizeParent=1;resizeParentMax=0;resizeLast=0;collapsible=1;marginBottom=0;whiteSpace=wrap;html=1;" parent="1" vertex="1">
          <mxGeometry x="480" y="1676" width="160" height="130" as="geometry" />
        </mxCell>
        <mxCell id="7OrvbcCntl593sybiv5M-132" value="DoSomething()" style="text;strokeColor=none;fillColor=none;align=left;verticalAlign=top;spacingLeft=4;spacingRight=4;overflow=hidden;rotatable=0;points=[[0,0.5],[1,0.5]];portConstraint=eastwest;whiteSpace=wrap;html=1;" parent="7OrvbcCntl593sybiv5M-109" vertex="1">
          <mxGeometry y="26" width="160" height="26" as="geometry" />
        </mxCell>
        <mxCell id="7OrvbcCntl593sybiv5M-126" value="&lt;span style=&quot;font-style: normal;&quot;&gt;#Draw()&lt;/span&gt;" style="text;strokeColor=none;fillColor=none;align=left;verticalAlign=top;spacingLeft=4;spacingRight=4;overflow=hidden;rotatable=0;points=[[0,0.5],[1,0.5]];portConstraint=eastwest;whiteSpace=wrap;html=1;fontStyle=2" parent="7OrvbcCntl593sybiv5M-109" vertex="1">
          <mxGeometry y="52" width="160" height="26" as="geometry" />
        </mxCell>
        <mxCell id="7OrvbcCntl593sybiv5M-162" value="-DrawBorder()" style="text;strokeColor=none;fillColor=none;align=left;verticalAlign=top;spacingLeft=4;spacingRight=4;overflow=hidden;rotatable=0;points=[[0,0.5],[1,0.5]];portConstraint=eastwest;whiteSpace=wrap;html=1;" parent="7OrvbcCntl593sybiv5M-109" vertex="1">
          <mxGeometry y="78" width="160" height="26" as="geometry" />
        </mxCell>
        <mxCell id="7OrvbcCntl593sybiv5M-163" value="&lt;i&gt;-DrawSomethingElse()&lt;/i&gt;" style="text;strokeColor=none;fillColor=none;align=left;verticalAlign=top;spacingLeft=4;spacingRight=4;overflow=hidden;rotatable=0;points=[[0,0.5],[1,0.5]];portConstraint=eastwest;whiteSpace=wrap;html=1;" parent="7OrvbcCntl593sybiv5M-109" vertex="1">
          <mxGeometry y="104" width="160" height="26" as="geometry" />
        </mxCell>
        <mxCell id="7OrvbcCntl593sybiv5M-113" value="Child1" style="swimlane;fontStyle=1;align=center;verticalAlign=top;childLayout=stackLayout;horizontal=1;startSize=26;horizontalStack=0;resizeParent=1;resizeParentMax=0;resizeLast=0;collapsible=1;marginBottom=0;whiteSpace=wrap;html=1;" parent="1" vertex="1">
          <mxGeometry x="400" y="1900" width="160" height="52" as="geometry" />
        </mxCell>
        <mxCell id="7OrvbcCntl593sybiv5M-116" value="-DrawSomethingElse()" style="text;strokeColor=none;fillColor=none;align=left;verticalAlign=top;spacingLeft=4;spacingRight=4;overflow=hidden;rotatable=0;points=[[0,0.5],[1,0.5]];portConstraint=eastwest;whiteSpace=wrap;html=1;" parent="7OrvbcCntl593sybiv5M-113" vertex="1">
          <mxGeometry y="26" width="160" height="26" as="geometry" />
        </mxCell>
        <mxCell id="7OrvbcCntl593sybiv5M-114" value="Extends" style="endArrow=block;endSize=16;endFill=0;html=1;rounded=0;" parent="1" source="7OrvbcCntl593sybiv5M-113" target="7OrvbcCntl593sybiv5M-109" edge="1">
          <mxGeometry width="160" relative="1" as="geometry">
            <mxPoint x="490" y="1790" as="sourcePoint" />
            <mxPoint x="650" y="1790" as="targetPoint" />
          </mxGeometry>
        </mxCell>
        <mxCell id="7OrvbcCntl593sybiv5M-117" value="Child2" style="swimlane;fontStyle=1;align=center;verticalAlign=top;childLayout=stackLayout;horizontal=1;startSize=26;horizontalStack=0;resizeParent=1;resizeParentMax=0;resizeLast=0;collapsible=1;marginBottom=0;whiteSpace=wrap;html=1;" parent="1" vertex="1">
          <mxGeometry x="612.5" y="1898" width="160" height="52" as="geometry" />
        </mxCell>
        <mxCell id="7OrvbcCntl593sybiv5M-118" value="-DrawSomethingElse()" style="text;strokeColor=none;fillColor=none;align=left;verticalAlign=top;spacingLeft=4;spacingRight=4;overflow=hidden;rotatable=0;points=[[0,0.5],[1,0.5]];portConstraint=eastwest;whiteSpace=wrap;html=1;" parent="7OrvbcCntl593sybiv5M-117" vertex="1">
          <mxGeometry y="26" width="160" height="26" as="geometry" />
        </mxCell>
        <mxCell id="7OrvbcCntl593sybiv5M-120" value="DrawBorder&lt;div&gt;&lt;br&gt;&lt;/div&gt;&lt;div&gt;DrawSomethingElse&lt;/div&gt;" style="shape=note;whiteSpace=wrap;html=1;backgroundOutline=1;darkOpacity=0.05;" parent="1" vertex="1">
          <mxGeometry x="220" y="1790" width="130" height="100" as="geometry" />
        </mxCell>
        <mxCell id="7OrvbcCntl593sybiv5M-121" style="edgeStyle=orthogonalEdgeStyle;rounded=0;orthogonalLoop=1;jettySize=auto;html=1;" parent="1" source="7OrvbcCntl593sybiv5M-126" target="7OrvbcCntl593sybiv5M-120" edge="1">
          <mxGeometry relative="1" as="geometry">
            <mxPoint x="400" y="1899.0285714285715" as="sourcePoint" />
          </mxGeometry>
        </mxCell>
        <mxCell id="7OrvbcCntl593sybiv5M-125" value="Extends" style="endArrow=block;endSize=16;endFill=0;html=1;rounded=0;" parent="1" source="7OrvbcCntl593sybiv5M-117" target="7OrvbcCntl593sybiv5M-109" edge="1">
          <mxGeometry width="160" relative="1" as="geometry">
            <mxPoint x="490" y="1790" as="sourcePoint" />
            <mxPoint x="650" y="1790" as="targetPoint" />
          </mxGeometry>
        </mxCell>
        <mxCell id="7OrvbcCntl593sybiv5M-127" value="Client" style="swimlane;fontStyle=1;align=center;verticalAlign=top;childLayout=stackLayout;horizontal=1;startSize=26;horizontalStack=0;resizeParent=1;resizeParentMax=0;resizeLast=0;collapsible=1;marginBottom=0;whiteSpace=wrap;html=1;" parent="1" vertex="1">
          <mxGeometry x="790" y="1661" width="160" height="86" as="geometry" />
        </mxCell>
        <mxCell id="7OrvbcCntl593sybiv5M-128" value="+ field: type" style="text;strokeColor=none;fillColor=none;align=left;verticalAlign=top;spacingLeft=4;spacingRight=4;overflow=hidden;rotatable=0;points=[[0,0.5],[1,0.5]];portConstraint=eastwest;whiteSpace=wrap;html=1;" parent="7OrvbcCntl593sybiv5M-127" vertex="1">
          <mxGeometry y="26" width="160" height="26" as="geometry" />
        </mxCell>
        <mxCell id="7OrvbcCntl593sybiv5M-129" value="" style="line;strokeWidth=1;fillColor=none;align=left;verticalAlign=middle;spacingTop=-1;spacingLeft=3;spacingRight=3;rotatable=0;labelPosition=right;points=[];portConstraint=eastwest;strokeColor=inherit;" parent="7OrvbcCntl593sybiv5M-127" vertex="1">
          <mxGeometry y="52" width="160" height="8" as="geometry" />
        </mxCell>
        <mxCell id="7OrvbcCntl593sybiv5M-130" value="+ method(type): type" style="text;strokeColor=none;fillColor=none;align=left;verticalAlign=top;spacingLeft=4;spacingRight=4;overflow=hidden;rotatable=0;points=[[0,0.5],[1,0.5]];portConstraint=eastwest;whiteSpace=wrap;html=1;" parent="7OrvbcCntl593sybiv5M-127" vertex="1">
          <mxGeometry y="60" width="160" height="26" as="geometry" />
        </mxCell>
        <mxCell id="7OrvbcCntl593sybiv5M-131" value="Use" style="endArrow=open;endSize=12;dashed=1;html=1;rounded=0;" parent="1" source="7OrvbcCntl593sybiv5M-127" target="7OrvbcCntl593sybiv5M-109" edge="1">
          <mxGeometry width="160" relative="1" as="geometry">
            <mxPoint x="710" y="1810" as="sourcePoint" />
            <mxPoint x="870" y="1810" as="targetPoint" />
          </mxGeometry>
        </mxCell>
        <mxCell id="7OrvbcCntl593sybiv5M-133" value="ISomeInterface" style="swimlane;fontStyle=3;align=center;verticalAlign=top;childLayout=stackLayout;horizontal=1;startSize=26;horizontalStack=0;resizeParent=1;resizeParentMax=0;resizeLast=0;collapsible=1;marginBottom=0;whiteSpace=wrap;html=1;" parent="1" vertex="1">
          <mxGeometry x="250" y="1478" width="160" height="52" as="geometry" />
        </mxCell>
        <mxCell id="7OrvbcCntl593sybiv5M-134" value="DoSomething()" style="text;strokeColor=none;fillColor=none;align=left;verticalAlign=top;spacingLeft=4;spacingRight=4;overflow=hidden;rotatable=0;points=[[0,0.5],[1,0.5]];portConstraint=eastwest;whiteSpace=wrap;html=1;fontStyle=2" parent="7OrvbcCntl593sybiv5M-133" vertex="1">
          <mxGeometry y="26" width="160" height="26" as="geometry" />
        </mxCell>
        <mxCell id="7OrvbcCntl593sybiv5M-136" value="Client" style="swimlane;fontStyle=1;align=center;verticalAlign=top;childLayout=stackLayout;horizontal=1;startSize=26;horizontalStack=0;resizeParent=1;resizeParentMax=0;resizeLast=0;collapsible=1;marginBottom=0;whiteSpace=wrap;html=1;" parent="1" vertex="1">
          <mxGeometry x="570" y="1436" width="160" height="52" as="geometry" />
        </mxCell>
        <mxCell id="7OrvbcCntl593sybiv5M-137" value="+ field: type" style="text;strokeColor=none;fillColor=none;align=left;verticalAlign=top;spacingLeft=4;spacingRight=4;overflow=hidden;rotatable=0;points=[[0,0.5],[1,0.5]];portConstraint=eastwest;whiteSpace=wrap;html=1;" parent="7OrvbcCntl593sybiv5M-136" vertex="1">
          <mxGeometry y="26" width="160" height="26" as="geometry" />
        </mxCell>
        <mxCell id="7OrvbcCntl593sybiv5M-140" value="Service1" style="swimlane;fontStyle=1;align=center;verticalAlign=top;childLayout=stackLayout;horizontal=1;startSize=26;horizontalStack=0;resizeParent=1;resizeParentMax=0;resizeLast=0;collapsible=1;marginBottom=0;whiteSpace=wrap;html=1;" parent="1" vertex="1">
          <mxGeometry x="240" y="1640" width="160" height="86" as="geometry" />
        </mxCell>
        <mxCell id="7OrvbcCntl593sybiv5M-141" value="+ field: type" style="text;strokeColor=none;fillColor=none;align=left;verticalAlign=top;spacingLeft=4;spacingRight=4;overflow=hidden;rotatable=0;points=[[0,0.5],[1,0.5]];portConstraint=eastwest;whiteSpace=wrap;html=1;" parent="7OrvbcCntl593sybiv5M-140" vertex="1">
          <mxGeometry y="26" width="160" height="26" as="geometry" />
        </mxCell>
        <mxCell id="7OrvbcCntl593sybiv5M-142" value="" style="line;strokeWidth=1;fillColor=none;align=left;verticalAlign=middle;spacingTop=-1;spacingLeft=3;spacingRight=3;rotatable=0;labelPosition=right;points=[];portConstraint=eastwest;strokeColor=inherit;" parent="7OrvbcCntl593sybiv5M-140" vertex="1">
          <mxGeometry y="52" width="160" height="8" as="geometry" />
        </mxCell>
        <mxCell id="7OrvbcCntl593sybiv5M-143" value="+ method(type): type" style="text;strokeColor=none;fillColor=none;align=left;verticalAlign=top;spacingLeft=4;spacingRight=4;overflow=hidden;rotatable=0;points=[[0,0.5],[1,0.5]];portConstraint=eastwest;whiteSpace=wrap;html=1;" parent="7OrvbcCntl593sybiv5M-140" vertex="1">
          <mxGeometry y="60" width="160" height="26" as="geometry" />
        </mxCell>
        <mxCell id="7OrvbcCntl593sybiv5M-144" value="Service" style="swimlane;fontStyle=1;align=center;verticalAlign=top;childLayout=stackLayout;horizontal=1;startSize=26;horizontalStack=0;resizeParent=1;resizeParentMax=0;resizeLast=0;collapsible=1;marginBottom=0;whiteSpace=wrap;html=1;" parent="1" vertex="1">
          <mxGeometry x="50" y="1530" width="160" height="86" as="geometry" />
        </mxCell>
        <mxCell id="7OrvbcCntl593sybiv5M-145" value="+ field: type" style="text;strokeColor=none;fillColor=none;align=left;verticalAlign=top;spacingLeft=4;spacingRight=4;overflow=hidden;rotatable=0;points=[[0,0.5],[1,0.5]];portConstraint=eastwest;whiteSpace=wrap;html=1;" parent="7OrvbcCntl593sybiv5M-144" vertex="1">
          <mxGeometry y="26" width="160" height="26" as="geometry" />
        </mxCell>
        <mxCell id="7OrvbcCntl593sybiv5M-146" value="" style="line;strokeWidth=1;fillColor=none;align=left;verticalAlign=middle;spacingTop=-1;spacingLeft=3;spacingRight=3;rotatable=0;labelPosition=right;points=[];portConstraint=eastwest;strokeColor=inherit;" parent="7OrvbcCntl593sybiv5M-144" vertex="1">
          <mxGeometry y="52" width="160" height="8" as="geometry" />
        </mxCell>
        <mxCell id="7OrvbcCntl593sybiv5M-147" value="+ method(type): type" style="text;strokeColor=none;fillColor=none;align=left;verticalAlign=top;spacingLeft=4;spacingRight=4;overflow=hidden;rotatable=0;points=[[0,0.5],[1,0.5]];portConstraint=eastwest;whiteSpace=wrap;html=1;" parent="7OrvbcCntl593sybiv5M-144" vertex="1">
          <mxGeometry y="60" width="160" height="26" as="geometry" />
        </mxCell>
        <mxCell id="7OrvbcCntl593sybiv5M-148" value="" style="endArrow=block;dashed=1;endFill=0;endSize=12;html=1;rounded=0;" parent="1" source="7OrvbcCntl593sybiv5M-140" target="7OrvbcCntl593sybiv5M-133" edge="1">
          <mxGeometry width="160" relative="1" as="geometry">
            <mxPoint x="330" y="1600" as="sourcePoint" />
            <mxPoint x="490" y="1600" as="targetPoint" />
          </mxGeometry>
        </mxCell>
        <mxCell id="7OrvbcCntl593sybiv5M-150" value="" style="endArrow=block;dashed=1;endFill=0;endSize=12;html=1;rounded=0;" parent="1" source="7OrvbcCntl593sybiv5M-144" target="7OrvbcCntl593sybiv5M-133" edge="1">
          <mxGeometry width="160" relative="1" as="geometry">
            <mxPoint x="330" y="1600" as="sourcePoint" />
            <mxPoint x="490" y="1600" as="targetPoint" />
          </mxGeometry>
        </mxCell>
        <mxCell id="7OrvbcCntl593sybiv5M-151" value="Use" style="endArrow=open;endSize=12;dashed=1;html=1;rounded=0;" parent="1" source="7OrvbcCntl593sybiv5M-136" target="7OrvbcCntl593sybiv5M-133" edge="1">
          <mxGeometry width="160" relative="1" as="geometry">
            <mxPoint x="600" y="1570" as="sourcePoint" />
            <mxPoint x="760" y="1570" as="targetPoint" />
          </mxGeometry>
        </mxCell>
        <mxCell id="7OrvbcCntl593sybiv5M-152" value="MockSomeInterface" style="swimlane;fontStyle=1;align=center;verticalAlign=top;childLayout=stackLayout;horizontal=1;startSize=26;horizontalStack=0;resizeParent=1;resizeParentMax=0;resizeLast=0;collapsible=1;marginBottom=0;whiteSpace=wrap;html=1;" parent="1" vertex="1">
          <mxGeometry x="470" y="1570" width="160" height="86" as="geometry" />
        </mxCell>
        <mxCell id="7OrvbcCntl593sybiv5M-153" value="+ field: type" style="text;strokeColor=none;fillColor=none;align=left;verticalAlign=top;spacingLeft=4;spacingRight=4;overflow=hidden;rotatable=0;points=[[0,0.5],[1,0.5]];portConstraint=eastwest;whiteSpace=wrap;html=1;" parent="7OrvbcCntl593sybiv5M-152" vertex="1">
          <mxGeometry y="26" width="160" height="26" as="geometry" />
        </mxCell>
        <mxCell id="7OrvbcCntl593sybiv5M-154" value="" style="line;strokeWidth=1;fillColor=none;align=left;verticalAlign=middle;spacingTop=-1;spacingLeft=3;spacingRight=3;rotatable=0;labelPosition=right;points=[];portConstraint=eastwest;strokeColor=inherit;" parent="7OrvbcCntl593sybiv5M-152" vertex="1">
          <mxGeometry y="52" width="160" height="8" as="geometry" />
        </mxCell>
        <mxCell id="7OrvbcCntl593sybiv5M-155" value="+ method(type): type" style="text;strokeColor=none;fillColor=none;align=left;verticalAlign=top;spacingLeft=4;spacingRight=4;overflow=hidden;rotatable=0;points=[[0,0.5],[1,0.5]];portConstraint=eastwest;whiteSpace=wrap;html=1;" parent="7OrvbcCntl593sybiv5M-152" vertex="1">
          <mxGeometry y="60" width="160" height="26" as="geometry" />
        </mxCell>
        <mxCell id="7OrvbcCntl593sybiv5M-156" value="IIdProvider" style="swimlane;fontStyle=3;align=center;verticalAlign=top;childLayout=stackLayout;horizontal=1;startSize=26;horizontalStack=0;resizeParent=1;resizeParentMax=0;resizeLast=0;collapsible=1;marginBottom=0;whiteSpace=wrap;html=1;" parent="1" vertex="1">
          <mxGeometry x="230" y="1370" width="160" height="52" as="geometry" />
        </mxCell>
        <mxCell id="7OrvbcCntl593sybiv5M-135" value="Invalidate()" style="text;strokeColor=none;fillColor=none;align=left;verticalAlign=top;spacingLeft=4;spacingRight=4;overflow=hidden;rotatable=0;points=[[0,0.5],[1,0.5]];portConstraint=eastwest;whiteSpace=wrap;html=1;fontStyle=0" parent="7OrvbcCntl593sybiv5M-156" vertex="1">
          <mxGeometry y="26" width="160" height="26" as="geometry" />
        </mxCell>
        <mxCell id="7OrvbcCntl593sybiv5M-160" value="" style="endArrow=block;dashed=1;endFill=0;endSize=12;html=1;rounded=0;" parent="1" source="7OrvbcCntl593sybiv5M-144" target="7OrvbcCntl593sybiv5M-156" edge="1">
          <mxGeometry width="160" relative="1" as="geometry">
            <mxPoint x="330" y="1600" as="sourcePoint" />
            <mxPoint x="490" y="1600" as="targetPoint" />
          </mxGeometry>
        </mxCell>
        <mxCell id="7OrvbcCntl593sybiv5M-161" value="Use" style="endArrow=open;endSize=12;dashed=1;html=1;rounded=0;" parent="1" source="7OrvbcCntl593sybiv5M-136" target="7OrvbcCntl593sybiv5M-156" edge="1">
          <mxGeometry width="160" relative="1" as="geometry">
            <mxPoint x="600" y="1570" as="sourcePoint" />
            <mxPoint x="760" y="1570" as="targetPoint" />
          </mxGeometry>
        </mxCell>
        <mxCell id="7OrvbcCntl593sybiv5M-164" value="IInputStream" style="swimlane;fontStyle=1;align=center;verticalAlign=top;childLayout=stackLayout;horizontal=1;startSize=26;horizontalStack=0;resizeParent=1;resizeParentMax=0;resizeLast=0;collapsible=1;marginBottom=0;whiteSpace=wrap;html=1;" parent="1" vertex="1">
          <mxGeometry x="390" y="1991" width="220" height="78" as="geometry" />
        </mxCell>
        <mxCell id="7OrvbcCntl593sybiv5M-165" value="+ReadByte(): byte" style="text;strokeColor=none;fillColor=none;align=left;verticalAlign=top;spacingLeft=4;spacingRight=4;overflow=hidden;rotatable=0;points=[[0,0.5],[1,0.5]];portConstraint=eastwest;whiteSpace=wrap;html=1;fontStyle=2" parent="7OrvbcCntl593sybiv5M-164" vertex="1">
          <mxGeometry y="26" width="220" height="26" as="geometry" />
        </mxCell>
        <mxCell id="7OrvbcCntl593sybiv5M-167" value="+ReadBytes(int count): vector&amp;lt;byte&amp;gt;" style="text;strokeColor=none;fillColor=none;align=left;verticalAlign=top;spacingLeft=4;spacingRight=4;overflow=hidden;rotatable=0;points=[[0,0.5],[1,0.5]];portConstraint=eastwest;whiteSpace=wrap;html=1;fontStyle=2" parent="7OrvbcCntl593sybiv5M-164" vertex="1">
          <mxGeometry y="52" width="220" height="26" as="geometry" />
        </mxCell>
        <mxCell id="7OrvbcCntl593sybiv5M-168" value="FileInputStream" style="swimlane;fontStyle=1;align=center;verticalAlign=top;childLayout=stackLayout;horizontal=1;startSize=26;horizontalStack=0;resizeParent=1;resizeParentMax=0;resizeLast=0;collapsible=1;marginBottom=0;whiteSpace=wrap;html=1;" parent="1" vertex="1">
          <mxGeometry x="420" y="2160" width="160" height="78" as="geometry" />
        </mxCell>
        <mxCell id="7OrvbcCntl593sybiv5M-169" value="+ReadByte(): byte" style="text;strokeColor=none;fillColor=none;align=left;verticalAlign=top;spacingLeft=4;spacingRight=4;overflow=hidden;rotatable=0;points=[[0,0.5],[1,0.5]];portConstraint=eastwest;whiteSpace=wrap;html=1;fontStyle=0" parent="7OrvbcCntl593sybiv5M-168" vertex="1">
          <mxGeometry y="26" width="160" height="26" as="geometry" />
        </mxCell>
        <mxCell id="7OrvbcCntl593sybiv5M-170" value="+ReadBytes(): vector&amp;lt;byte&amp;gt;" style="text;strokeColor=none;fillColor=none;align=left;verticalAlign=top;spacingLeft=4;spacingRight=4;overflow=hidden;rotatable=0;points=[[0,0.5],[1,0.5]];portConstraint=eastwest;whiteSpace=wrap;html=1;fontStyle=0" parent="7OrvbcCntl593sybiv5M-168" vertex="1">
          <mxGeometry y="52" width="160" height="26" as="geometry" />
        </mxCell>
        <mxCell id="7OrvbcCntl593sybiv5M-171" value="return ReadBytes(1)[0]" style="shape=note;whiteSpace=wrap;html=1;backgroundOutline=1;darkOpacity=0.05;" parent="1" vertex="1">
          <mxGeometry x="710" y="1980" width="170" height="100" as="geometry" />
        </mxCell>
        <mxCell id="7OrvbcCntl593sybiv5M-172" style="edgeStyle=orthogonalEdgeStyle;rounded=0;orthogonalLoop=1;jettySize=auto;html=1;" parent="1" source="7OrvbcCntl593sybiv5M-175" target="7OrvbcCntl593sybiv5M-171" edge="1">
          <mxGeometry relative="1" as="geometry" />
        </mxCell>
        <mxCell id="7OrvbcCntl593sybiv5M-173" value="" style="endArrow=block;dashed=1;endFill=0;endSize=12;html=1;rounded=0;" parent="1" source="7OrvbcCntl593sybiv5M-168" target="7OrvbcCntl593sybiv5M-164" edge="1">
          <mxGeometry width="160" relative="1" as="geometry">
            <mxPoint x="450" y="2120" as="sourcePoint" />
            <mxPoint x="610" y="2120" as="targetPoint" />
          </mxGeometry>
        </mxCell>
        <mxCell id="7OrvbcCntl593sybiv5M-174" value="InputStream" style="swimlane;fontStyle=3;align=center;verticalAlign=top;childLayout=stackLayout;horizontal=1;startSize=26;horizontalStack=0;resizeParent=1;resizeParentMax=0;resizeLast=0;collapsible=1;marginBottom=0;whiteSpace=wrap;html=1;" parent="1" vertex="1">
          <mxGeometry x="620" y="2100" width="160" height="52" as="geometry" />
        </mxCell>
        <mxCell id="7OrvbcCntl593sybiv5M-175" value="+ReadByte(): byte" style="text;strokeColor=none;fillColor=none;align=left;verticalAlign=top;spacingLeft=4;spacingRight=4;overflow=hidden;rotatable=0;points=[[0,0.5],[1,0.5]];portConstraint=eastwest;whiteSpace=wrap;html=1;fontStyle=0" parent="7OrvbcCntl593sybiv5M-174" vertex="1">
          <mxGeometry y="26" width="160" height="26" as="geometry" />
        </mxCell>
        <mxCell id="7OrvbcCntl593sybiv5M-177" value="" style="endArrow=block;dashed=1;endFill=0;endSize=12;html=1;rounded=0;" parent="1" source="7OrvbcCntl593sybiv5M-174" target="7OrvbcCntl593sybiv5M-164" edge="1">
          <mxGeometry width="160" relative="1" as="geometry">
            <mxPoint x="450" y="2120" as="sourcePoint" />
            <mxPoint x="610" y="2120" as="targetPoint" />
          </mxGeometry>
        </mxCell>
        <mxCell id="7OrvbcCntl593sybiv5M-178" value="MemoryInputStream" style="swimlane;fontStyle=1;align=center;verticalAlign=top;childLayout=stackLayout;horizontal=1;startSize=26;horizontalStack=0;resizeParent=1;resizeParentMax=0;resizeLast=0;collapsible=1;marginBottom=0;whiteSpace=wrap;html=1;" parent="1" vertex="1">
          <mxGeometry x="612.5" y="2238" width="190" height="52" as="geometry" />
        </mxCell>
        <mxCell id="7OrvbcCntl593sybiv5M-180" value="+ReadBytes(): vector&amp;lt;byte&amp;gt;" style="text;strokeColor=none;fillColor=none;align=left;verticalAlign=top;spacingLeft=4;spacingRight=4;overflow=hidden;rotatable=0;points=[[0,0.5],[1,0.5]];portConstraint=eastwest;whiteSpace=wrap;html=1;fontStyle=0" parent="7OrvbcCntl593sybiv5M-178" vertex="1">
          <mxGeometry y="26" width="190" height="26" as="geometry" />
        </mxCell>
        <mxCell id="7OrvbcCntl593sybiv5M-181" value="Extends" style="endArrow=block;endSize=16;endFill=0;html=1;rounded=0;" parent="1" source="7OrvbcCntl593sybiv5M-178" target="7OrvbcCntl593sybiv5M-174" edge="1">
          <mxGeometry width="160" relative="1" as="geometry">
            <mxPoint x="630" y="2170" as="sourcePoint" />
            <mxPoint x="790" y="2170" as="targetPoint" />
          </mxGeometry>
        </mxCell>
        <mxCell id="7OrvbcCntl593sybiv5M-182" value="CompressionStream" style="swimlane;fontStyle=1;align=center;verticalAlign=top;childLayout=stackLayout;horizontal=1;startSize=26;horizontalStack=0;resizeParent=1;resizeParentMax=0;resizeLast=0;collapsible=1;marginBottom=0;whiteSpace=wrap;html=1;" parent="1" vertex="1">
          <mxGeometry x="830" y="2238" width="190" height="52" as="geometry" />
        </mxCell>
        <mxCell id="7OrvbcCntl593sybiv5M-183" value="+ReadBytes(): vector&amp;lt;byte&amp;gt;" style="text;strokeColor=none;fillColor=none;align=left;verticalAlign=top;spacingLeft=4;spacingRight=4;overflow=hidden;rotatable=0;points=[[0,0.5],[1,0.5]];portConstraint=eastwest;whiteSpace=wrap;html=1;fontStyle=0" parent="7OrvbcCntl593sybiv5M-182" vertex="1">
          <mxGeometry y="26" width="190" height="26" as="geometry" />
        </mxCell>
        <mxCell id="7OrvbcCntl593sybiv5M-184" value="Extends" style="endArrow=block;endSize=16;endFill=0;html=1;rounded=0;" parent="1" source="7OrvbcCntl593sybiv5M-182" target="7OrvbcCntl593sybiv5M-174" edge="1">
          <mxGeometry width="160" relative="1" as="geometry">
            <mxPoint x="630" y="2170" as="sourcePoint" />
            <mxPoint x="790" y="2170" as="targetPoint" />
          </mxGeometry>
        </mxCell>
        <mxCell id="7OrvbcCntl593sybiv5M-185" value="Parent" style="swimlane;fontStyle=1;align=center;verticalAlign=top;childLayout=stackLayout;horizontal=1;startSize=26;horizontalStack=0;resizeParent=1;resizeParentMax=0;resizeLast=0;collapsible=1;marginBottom=0;whiteSpace=wrap;html=1;fillColor=#f9f7ed;strokeColor=#36393d;" parent="1" vertex="1">
          <mxGeometry x="350" y="2350" width="260" height="112" as="geometry" />
        </mxCell>
        <mxCell id="7OrvbcCntl593sybiv5M-186" value="+Read(stream:InputFileStream):InputStream" style="text;align=left;verticalAlign=top;spacingLeft=4;spacingRight=4;overflow=hidden;rotatable=0;points=[[0,0.5],[1,0.5]];portConstraint=eastwest;whiteSpace=wrap;html=1;fontStyle=2;fillColor=#f9f7ed;strokeColor=#36393d;" parent="7OrvbcCntl593sybiv5M-185" vertex="1">
          <mxGeometry y="26" width="260" height="26" as="geometry" />
        </mxCell>
        <mxCell id="7OrvbcCntl593sybiv5M-202" value="DoSomething(arg:int):" style="text;align=left;verticalAlign=top;spacingLeft=4;spacingRight=4;overflow=hidden;rotatable=0;points=[[0,0.5],[1,0.5]];portConstraint=eastwest;whiteSpace=wrap;html=1;fillColor=#f9f7ed;strokeColor=#36393d;" parent="7OrvbcCntl593sybiv5M-185" vertex="1">
          <mxGeometry y="52" width="260" height="26" as="geometry" />
        </mxCell>
        <mxCell id="7OrvbcCntl593sybiv5M-204" value="Height:int" style="text;align=left;verticalAlign=top;spacingLeft=4;spacingRight=4;overflow=hidden;rotatable=0;points=[[0,0.5],[1,0.5]];portConstraint=eastwest;whiteSpace=wrap;html=1;fillColor=#f9f7ed;strokeColor=#36393d;" parent="7OrvbcCntl593sybiv5M-185" vertex="1">
          <mxGeometry y="78" width="260" height="26" as="geometry" />
        </mxCell>
        <mxCell id="7OrvbcCntl593sybiv5M-187" value="" style="line;strokeWidth=1;align=left;verticalAlign=middle;spacingTop=-1;spacingLeft=3;spacingRight=3;rotatable=0;labelPosition=right;points=[];portConstraint=eastwest;fillColor=#f9f7ed;strokeColor=#36393d;" parent="7OrvbcCntl593sybiv5M-185" vertex="1">
          <mxGeometry y="104" width="260" height="8" as="geometry" />
        </mxCell>
        <mxCell id="7OrvbcCntl593sybiv5M-189" value="InputStream" style="swimlane;fontStyle=1;align=center;verticalAlign=top;childLayout=stackLayout;horizontal=1;startSize=26;horizontalStack=0;resizeParent=1;resizeParentMax=0;resizeLast=0;collapsible=1;marginBottom=0;whiteSpace=wrap;html=1;fillColor=#f9f7ed;strokeColor=#36393d;" parent="1" vertex="1">
          <mxGeometry x="760" y="2390" width="160" height="52" as="geometry" />
        </mxCell>
        <mxCell id="7OrvbcCntl593sybiv5M-193" value="InputFileStream" style="swimlane;fontStyle=1;align=center;verticalAlign=top;childLayout=stackLayout;horizontal=1;startSize=26;horizontalStack=0;resizeParent=1;resizeParentMax=0;resizeLast=0;collapsible=1;marginBottom=0;whiteSpace=wrap;html=1;fillColor=#f9f7ed;strokeColor=#36393d;" parent="1" vertex="1">
          <mxGeometry x="755" y="2500" width="160" height="52" as="geometry" />
        </mxCell>
        <mxCell id="7OrvbcCntl593sybiv5M-195" value="Extends" style="endArrow=block;endSize=16;endFill=0;html=1;rounded=0;fillColor=#f9f7ed;strokeColor=#36393d;" parent="1" source="7OrvbcCntl593sybiv5M-193" target="7OrvbcCntl593sybiv5M-189" edge="1">
          <mxGeometry width="160" relative="1" as="geometry">
            <mxPoint x="770" y="2480" as="sourcePoint" />
            <mxPoint x="930" y="2480" as="targetPoint" />
          </mxGeometry>
        </mxCell>
        <mxCell id="7OrvbcCntl593sybiv5M-196" value="Use" style="endArrow=open;endSize=12;dashed=1;html=1;rounded=0;fillColor=#f9f7ed;strokeColor=#36393d;" parent="1" source="7OrvbcCntl593sybiv5M-185" target="7OrvbcCntl593sybiv5M-189" edge="1">
          <mxGeometry width="160" relative="1" as="geometry">
            <mxPoint x="670" y="2460" as="sourcePoint" />
            <mxPoint x="830" y="2460" as="targetPoint" />
          </mxGeometry>
        </mxCell>
        <mxCell id="7OrvbcCntl593sybiv5M-197" value="Use" style="endArrow=open;endSize=12;dashed=1;html=1;rounded=0;fillColor=#f9f7ed;strokeColor=#36393d;" parent="1" source="7OrvbcCntl593sybiv5M-185" target="7OrvbcCntl593sybiv5M-193" edge="1">
          <mxGeometry width="160" relative="1" as="geometry">
            <mxPoint x="670" y="2460" as="sourcePoint" />
            <mxPoint x="830" y="2460" as="targetPoint" />
          </mxGeometry>
        </mxCell>
        <mxCell id="7OrvbcCntl593sybiv5M-198" value="Child" style="swimlane;fontStyle=1;align=center;verticalAlign=top;childLayout=stackLayout;horizontal=1;startSize=26;horizontalStack=0;resizeParent=1;resizeParentMax=0;resizeLast=0;collapsible=1;marginBottom=0;whiteSpace=wrap;html=1;fillColor=#f9f7ed;strokeColor=#36393d;" parent="1" vertex="1">
          <mxGeometry x="352.5" y="2530" width="260" height="86" as="geometry" />
        </mxCell>
        <mxCell id="7OrvbcCntl593sybiv5M-199" value="+Read(stream:InputStream):InputFileStream" style="text;align=left;verticalAlign=top;spacingLeft=4;spacingRight=4;overflow=hidden;rotatable=0;points=[[0,0.5],[1,0.5]];portConstraint=eastwest;whiteSpace=wrap;html=1;fontStyle=0;fillColor=#f9f7ed;strokeColor=#36393d;" parent="7OrvbcCntl593sybiv5M-198" vertex="1">
          <mxGeometry y="26" width="260" height="26" as="geometry" />
        </mxCell>
        <mxCell id="7OrvbcCntl593sybiv5M-203" value="DoSomething(arg:int)" style="text;align=left;verticalAlign=top;spacingLeft=4;spacingRight=4;overflow=hidden;rotatable=0;points=[[0,0.5],[1,0.5]];portConstraint=eastwest;whiteSpace=wrap;html=1;fillColor=#f9f7ed;strokeColor=#36393d;" parent="7OrvbcCntl593sybiv5M-198" vertex="1">
          <mxGeometry y="52" width="260" height="26" as="geometry" />
        </mxCell>
        <mxCell id="7OrvbcCntl593sybiv5M-200" value="" style="line;strokeWidth=1;align=left;verticalAlign=middle;spacingTop=-1;spacingLeft=3;spacingRight=3;rotatable=0;labelPosition=right;points=[];portConstraint=eastwest;fillColor=#f9f7ed;strokeColor=#36393d;" parent="7OrvbcCntl593sybiv5M-198" vertex="1">
          <mxGeometry y="78" width="260" height="8" as="geometry" />
        </mxCell>
        <mxCell id="7OrvbcCntl593sybiv5M-201" value="Extends" style="endArrow=block;endSize=16;endFill=0;html=1;rounded=0;fillColor=#f9f7ed;strokeColor=#36393d;" parent="1" source="7OrvbcCntl593sybiv5M-198" target="7OrvbcCntl593sybiv5M-185" edge="1">
          <mxGeometry width="160" relative="1" as="geometry">
            <mxPoint x="440" y="2510" as="sourcePoint" />
            <mxPoint x="600" y="2510" as="targetPoint" />
          </mxGeometry>
        </mxCell>
        <mxCell id="7OrvbcCntl593sybiv5M-205" value="X" style="swimlane;fontStyle=1;align=center;verticalAlign=top;childLayout=stackLayout;horizontal=1;startSize=26;horizontalStack=0;resizeParent=1;resizeParentMax=0;resizeLast=0;collapsible=1;marginBottom=0;whiteSpace=wrap;html=1;fillColor=#f9f7ed;strokeColor=#36393d;" parent="1" vertex="1">
          <mxGeometry x="520.5" y="2810" width="160" height="86" as="geometry" />
        </mxCell>
        <mxCell id="7OrvbcCntl593sybiv5M-206" value="X(y:Y)" style="text;align=left;verticalAlign=top;spacingLeft=4;spacingRight=4;overflow=hidden;rotatable=0;points=[[0,0.5],[1,0.5]];portConstraint=eastwest;whiteSpace=wrap;html=1;fillColor=#f9f7ed;strokeColor=#36393d;" parent="7OrvbcCntl593sybiv5M-205" vertex="1">
          <mxGeometry y="26" width="160" height="26" as="geometry" />
        </mxCell>
        <mxCell id="7OrvbcCntl593sybiv5M-207" value="" style="line;strokeWidth=1;align=left;verticalAlign=middle;spacingTop=-1;spacingLeft=3;spacingRight=3;rotatable=0;labelPosition=right;points=[];portConstraint=eastwest;fillColor=#f9f7ed;strokeColor=#36393d;" parent="7OrvbcCntl593sybiv5M-205" vertex="1">
          <mxGeometry y="52" width="160" height="8" as="geometry" />
        </mxCell>
        <mxCell id="7OrvbcCntl593sybiv5M-208" value="DoSomething()" style="text;align=left;verticalAlign=top;spacingLeft=4;spacingRight=4;overflow=hidden;rotatable=0;points=[[0,0.5],[1,0.5]];portConstraint=eastwest;whiteSpace=wrap;html=1;fillColor=#f9f7ed;strokeColor=#36393d;" parent="7OrvbcCntl593sybiv5M-205" vertex="1">
          <mxGeometry y="60" width="160" height="26" as="geometry" />
        </mxCell>
        <mxCell id="7OrvbcCntl593sybiv5M-209" value="Y" style="swimlane;fontStyle=1;align=center;verticalAlign=top;childLayout=stackLayout;horizontal=1;startSize=26;horizontalStack=0;resizeParent=1;resizeParentMax=0;resizeLast=0;collapsible=1;marginBottom=0;whiteSpace=wrap;html=1;fillColor=#f9f7ed;strokeColor=#36393d;" parent="1" vertex="1">
          <mxGeometry x="220" y="2640" width="160" height="52" as="geometry" />
        </mxCell>
        <mxCell id="7OrvbcCntl593sybiv5M-236" value="YYY()" style="text;align=left;verticalAlign=top;spacingLeft=4;spacingRight=4;overflow=hidden;rotatable=0;points=[[0,0.5],[1,0.5]];portConstraint=eastwest;whiteSpace=wrap;html=1;fillColor=#f9f7ed;strokeColor=#36393d;" parent="7OrvbcCntl593sybiv5M-209" vertex="1">
          <mxGeometry y="26" width="160" height="26" as="geometry" />
        </mxCell>
        <mxCell id="7OrvbcCntl593sybiv5M-213" value="Use" style="endArrow=open;endSize=12;dashed=1;html=1;rounded=0;fillColor=#f9f7ed;strokeColor=#36393d;" parent="1" source="7OrvbcCntl593sybiv5M-205" target="7OrvbcCntl593sybiv5M-209" edge="1">
          <mxGeometry width="160" relative="1" as="geometry">
            <mxPoint x="720" y="2940" as="sourcePoint" />
            <mxPoint x="880" y="2940" as="targetPoint" />
          </mxGeometry>
        </mxCell>
        <mxCell id="7OrvbcCntl593sybiv5M-214" value="Z" style="swimlane;fontStyle=1;align=center;verticalAlign=top;childLayout=stackLayout;horizontal=1;startSize=26;horizontalStack=0;resizeParent=1;resizeParentMax=0;resizeLast=0;collapsible=1;marginBottom=0;whiteSpace=wrap;html=1;fillColor=#f9f7ed;strokeColor=#36393d;" parent="1" vertex="1">
          <mxGeometry x="190" y="2810" width="160" height="112" as="geometry" />
        </mxCell>
        <mxCell id="7OrvbcCntl593sybiv5M-215" value="Z(y:Y)" style="text;align=left;verticalAlign=top;spacingLeft=4;spacingRight=4;overflow=hidden;rotatable=0;points=[[0,0.5],[1,0.5]];portConstraint=eastwest;whiteSpace=wrap;html=1;fillColor=#f9f7ed;strokeColor=#36393d;" parent="7OrvbcCntl593sybiv5M-214" vertex="1">
          <mxGeometry y="26" width="160" height="26" as="geometry" />
        </mxCell>
        <mxCell id="7OrvbcCntl593sybiv5M-216" value="" style="line;strokeWidth=1;align=left;verticalAlign=middle;spacingTop=-1;spacingLeft=3;spacingRight=3;rotatable=0;labelPosition=right;points=[];portConstraint=eastwest;fillColor=#f9f7ed;strokeColor=#36393d;" parent="7OrvbcCntl593sybiv5M-214" vertex="1">
          <mxGeometry y="52" width="160" height="8" as="geometry" />
        </mxCell>
        <mxCell id="7OrvbcCntl593sybiv5M-217" value="ZZZ()" style="text;align=left;verticalAlign=top;spacingLeft=4;spacingRight=4;overflow=hidden;rotatable=0;points=[[0,0.5],[1,0.5]];portConstraint=eastwest;whiteSpace=wrap;html=1;fillColor=#f9f7ed;strokeColor=#36393d;" parent="7OrvbcCntl593sybiv5M-214" vertex="1">
          <mxGeometry y="60" width="160" height="26" as="geometry" />
        </mxCell>
        <mxCell id="7OrvbcCntl593sybiv5M-220" value="-m_y:Y" style="text;align=left;verticalAlign=top;spacingLeft=4;spacingRight=4;overflow=hidden;rotatable=0;points=[[0,0.5],[1,0.5]];portConstraint=eastwest;whiteSpace=wrap;html=1;fillColor=#f9f7ed;strokeColor=#36393d;" parent="7OrvbcCntl593sybiv5M-214" vertex="1">
          <mxGeometry y="86" width="160" height="26" as="geometry" />
        </mxCell>
        <mxCell id="7OrvbcCntl593sybiv5M-219" value="Use" style="endArrow=open;endSize=12;dashed=1;html=1;rounded=0;fillColor=#f9f7ed;strokeColor=#36393d;" parent="1" source="7OrvbcCntl593sybiv5M-214" target="7OrvbcCntl593sybiv5M-205" edge="1">
          <mxGeometry width="160" relative="1" as="geometry">
            <mxPoint x="450" y="2970" as="sourcePoint" />
            <mxPoint x="610" y="2970" as="targetPoint" />
          </mxGeometry>
        </mxCell>
        <mxCell id="7OrvbcCntl593sybiv5M-221" value="Use" style="endArrow=open;endSize=12;dashed=1;html=1;rounded=0;fillColor=#f9f7ed;strokeColor=#36393d;" parent="1" source="7OrvbcCntl593sybiv5M-214" target="7OrvbcCntl593sybiv5M-209" edge="1">
          <mxGeometry width="160" relative="1" as="geometry">
            <mxPoint x="450" y="2970" as="sourcePoint" />
            <mxPoint x="610" y="2970" as="targetPoint" />
          </mxGeometry>
        </mxCell>
        <mxCell id="7OrvbcCntl593sybiv5M-222" value="Z::ZZZ()&lt;div&gt;{&lt;/div&gt;&lt;div&gt;&amp;nbsp; X x(m_y);&lt;/div&gt;&lt;div&gt;&amp;nbsp; z.DoSomething()&lt;/div&gt;&lt;div&gt;}&lt;/div&gt;" style="shape=note;whiteSpace=wrap;html=1;backgroundOutline=1;darkOpacity=0.05;align=left;fillColor=#f9f7ed;strokeColor=#36393d;" parent="1" vertex="1">
          <mxGeometry x="350" y="2980" width="190" height="100" as="geometry" />
        </mxCell>
        <mxCell id="7OrvbcCntl593sybiv5M-223" style="edgeStyle=orthogonalEdgeStyle;rounded=0;orthogonalLoop=1;jettySize=auto;html=1;fillColor=#f9f7ed;strokeColor=#36393d;" parent="1" source="7OrvbcCntl593sybiv5M-217" target="7OrvbcCntl593sybiv5M-222" edge="1">
          <mxGeometry relative="1" as="geometry" />
        </mxCell>
        <mxCell id="7OrvbcCntl593sybiv5M-224" value="W" style="swimlane;fontStyle=1;align=center;verticalAlign=top;childLayout=stackLayout;horizontal=1;startSize=26;horizontalStack=0;resizeParent=1;resizeParentMax=0;resizeLast=0;collapsible=1;marginBottom=0;whiteSpace=wrap;html=1;fillColor=#f9f7ed;strokeColor=#36393d;" parent="1" vertex="1">
          <mxGeometry x="-100" y="2793" width="160" height="112" as="geometry" />
        </mxCell>
        <mxCell id="7OrvbcCntl593sybiv5M-225" value="Z(y:Y)" style="text;align=left;verticalAlign=top;spacingLeft=4;spacingRight=4;overflow=hidden;rotatable=0;points=[[0,0.5],[1,0.5]];portConstraint=eastwest;whiteSpace=wrap;html=1;fillColor=#f9f7ed;strokeColor=#36393d;" parent="7OrvbcCntl593sybiv5M-224" vertex="1">
          <mxGeometry y="26" width="160" height="26" as="geometry" />
        </mxCell>
        <mxCell id="7OrvbcCntl593sybiv5M-226" value="" style="line;strokeWidth=1;align=left;verticalAlign=middle;spacingTop=-1;spacingLeft=3;spacingRight=3;rotatable=0;labelPosition=right;points=[];portConstraint=eastwest;fillColor=#f9f7ed;strokeColor=#36393d;" parent="7OrvbcCntl593sybiv5M-224" vertex="1">
          <mxGeometry y="52" width="160" height="8" as="geometry" />
        </mxCell>
        <mxCell id="7OrvbcCntl593sybiv5M-227" value="WWW()" style="text;align=left;verticalAlign=top;spacingLeft=4;spacingRight=4;overflow=hidden;rotatable=0;points=[[0,0.5],[1,0.5]];portConstraint=eastwest;whiteSpace=wrap;html=1;fillColor=#f9f7ed;strokeColor=#36393d;" parent="7OrvbcCntl593sybiv5M-224" vertex="1">
          <mxGeometry y="60" width="160" height="26" as="geometry" />
        </mxCell>
        <mxCell id="7OrvbcCntl593sybiv5M-232" value="-m_z:Z" style="text;align=left;verticalAlign=top;spacingLeft=4;spacingRight=4;overflow=hidden;rotatable=0;points=[[0,0.5],[1,0.5]];portConstraint=eastwest;whiteSpace=wrap;html=1;fillColor=#f9f7ed;strokeColor=#36393d;" parent="7OrvbcCntl593sybiv5M-224" vertex="1">
          <mxGeometry y="86" width="160" height="26" as="geometry" />
        </mxCell>
        <mxCell id="7OrvbcCntl593sybiv5M-229" value="Use" style="endArrow=open;endSize=12;dashed=1;html=1;rounded=0;fillColor=#f9f7ed;strokeColor=#36393d;" parent="1" source="7OrvbcCntl593sybiv5M-224" target="7OrvbcCntl593sybiv5M-214" edge="1">
          <mxGeometry width="160" relative="1" as="geometry">
            <mxPoint x="100" y="2970" as="sourcePoint" />
            <mxPoint x="260" y="2970" as="targetPoint" />
          </mxGeometry>
        </mxCell>
        <mxCell id="7OrvbcCntl593sybiv5M-230" value="W::WWW()&lt;div&gt;{&lt;/div&gt;&lt;div&gt;&amp;nbsp; Z z(m_y);&lt;br&gt;&amp;nbsp; z.ZZZ()&lt;/div&gt;&lt;div&gt;}&lt;/div&gt;" style="shape=note;whiteSpace=wrap;html=1;backgroundOutline=1;darkOpacity=0.05;align=left;fillColor=#f9f7ed;strokeColor=#36393d;" parent="1" vertex="1">
          <mxGeometry x="20" y="2990" width="190" height="100" as="geometry" />
        </mxCell>
        <mxCell id="7OrvbcCntl593sybiv5M-231" style="edgeStyle=orthogonalEdgeStyle;rounded=0;orthogonalLoop=1;jettySize=auto;html=1;fillColor=#f9f7ed;strokeColor=#36393d;" parent="1" source="7OrvbcCntl593sybiv5M-227" target="7OrvbcCntl593sybiv5M-230" edge="1">
          <mxGeometry relative="1" as="geometry" />
        </mxCell>
        <mxCell id="7OrvbcCntl593sybiv5M-233" value="Use" style="endArrow=open;endSize=12;dashed=1;html=1;rounded=0;fillColor=#f9f7ed;strokeColor=#36393d;" parent="1" source="7OrvbcCntl593sybiv5M-224" target="7OrvbcCntl593sybiv5M-209" edge="1">
          <mxGeometry width="160" relative="1" as="geometry">
            <mxPoint x="450" y="2970" as="sourcePoint" />
            <mxPoint x="610" y="2970" as="targetPoint" />
          </mxGeometry>
        </mxCell>
        <mxCell id="7OrvbcCntl593sybiv5M-234" value="X::DoSomething()&lt;div&gt;{&lt;/div&gt;&lt;div&gt;&amp;nbsp;m_y.YYYY()&lt;/div&gt;&lt;div&gt;}&lt;/div&gt;" style="shape=note;whiteSpace=wrap;html=1;backgroundOutline=1;darkOpacity=0.05;align=left;fillColor=#f9f7ed;strokeColor=#36393d;" parent="1" vertex="1">
          <mxGeometry x="745" y="2799" width="190" height="100" as="geometry" />
        </mxCell>
        <mxCell id="7OrvbcCntl593sybiv5M-235" style="edgeStyle=orthogonalEdgeStyle;rounded=0;orthogonalLoop=1;jettySize=auto;html=1;fillColor=#f9f7ed;strokeColor=#36393d;" parent="1" source="7OrvbcCntl593sybiv5M-206" target="7OrvbcCntl593sybiv5M-234" edge="1">
          <mxGeometry relative="1" as="geometry" />
        </mxCell>
        <mxCell id="7OrvbcCntl593sybiv5M-237" value="M" style="swimlane;fontStyle=1;align=center;verticalAlign=top;childLayout=stackLayout;horizontal=1;startSize=26;horizontalStack=0;resizeParent=1;resizeParentMax=0;resizeLast=0;collapsible=1;marginBottom=0;whiteSpace=wrap;html=1;fillColor=#f9f7ed;strokeColor=#36393d;" parent="1" vertex="1">
          <mxGeometry x="520" y="2640" width="160" height="52" as="geometry" />
        </mxCell>
        <mxCell id="7OrvbcCntl593sybiv5M-238" value="YYY()" style="text;align=left;verticalAlign=top;spacingLeft=4;spacingRight=4;overflow=hidden;rotatable=0;points=[[0,0.5],[1,0.5]];portConstraint=eastwest;whiteSpace=wrap;html=1;fillColor=#f9f7ed;strokeColor=#36393d;" parent="7OrvbcCntl593sybiv5M-237" vertex="1">
          <mxGeometry y="26" width="160" height="26" as="geometry" />
        </mxCell>
        <mxCell id="7OrvbcCntl593sybiv5M-239" value="Use" style="endArrow=open;endSize=12;dashed=1;html=1;rounded=0;fillColor=#f9f7ed;strokeColor=#36393d;" parent="1" source="7OrvbcCntl593sybiv5M-205" target="7OrvbcCntl593sybiv5M-237" edge="1">
          <mxGeometry x="0.0053" width="160" relative="1" as="geometry">
            <mxPoint x="720" y="2940" as="sourcePoint" />
            <mxPoint x="880" y="2940" as="targetPoint" />
            <mxPoint as="offset" />
          </mxGeometry>
        </mxCell>
        <mxCell id="7OrvbcCntl593sybiv5M-240" value="N" style="swimlane;fontStyle=1;align=center;verticalAlign=top;childLayout=stackLayout;horizontal=1;startSize=26;horizontalStack=0;resizeParent=1;resizeParentMax=0;resizeLast=0;collapsible=1;marginBottom=0;whiteSpace=wrap;html=1;fillColor=#f9f7ed;strokeColor=#36393d;" parent="1" vertex="1">
          <mxGeometry x="740" y="2640" width="160" height="52" as="geometry" />
        </mxCell>
        <mxCell id="7OrvbcCntl593sybiv5M-241" value="YYY()" style="text;align=left;verticalAlign=top;spacingLeft=4;spacingRight=4;overflow=hidden;rotatable=0;points=[[0,0.5],[1,0.5]];portConstraint=eastwest;whiteSpace=wrap;html=1;fillColor=#f9f7ed;strokeColor=#36393d;" parent="7OrvbcCntl593sybiv5M-240" vertex="1">
          <mxGeometry y="26" width="160" height="26" as="geometry" />
        </mxCell>
        <mxCell id="7OrvbcCntl593sybiv5M-242" value="Use" style="endArrow=open;endSize=12;dashed=1;html=1;rounded=0;fillColor=#f9f7ed;strokeColor=#36393d;" parent="1" source="7OrvbcCntl593sybiv5M-205" target="7OrvbcCntl593sybiv5M-240" edge="1">
          <mxGeometry x="0.0053" width="160" relative="1" as="geometry">
            <mxPoint x="720" y="2940" as="sourcePoint" />
            <mxPoint x="880" y="2940" as="targetPoint" />
            <mxPoint as="offset" />
          </mxGeometry>
        </mxCell>
        <mxCell id="7OrvbcCntl593sybiv5M-243" value="Duck" style="swimlane;fontStyle=1;align=center;verticalAlign=top;childLayout=stackLayout;horizontal=1;startSize=26;horizontalStack=0;resizeParent=1;resizeParentMax=0;resizeLast=0;collapsible=1;marginBottom=0;whiteSpace=wrap;html=1;" parent="1" vertex="1">
          <mxGeometry x="240" y="3257" width="160" height="78" as="geometry" />
        </mxCell>
        <mxCell id="7OrvbcCntl593sybiv5M-246" value="Duck(fb:IFlyBehavior)" style="text;strokeColor=none;fillColor=none;align=left;verticalAlign=top;spacingLeft=4;spacingRight=4;overflow=hidden;rotatable=0;points=[[0,0.5],[1,0.5]];portConstraint=eastwest;whiteSpace=wrap;html=1;" parent="7OrvbcCntl593sybiv5M-243" vertex="1">
          <mxGeometry y="26" width="160" height="26" as="geometry" />
        </mxCell>
        <mxCell id="7OrvbcCntl593sybiv5M-244" value="Fly()" style="text;strokeColor=none;fillColor=none;align=left;verticalAlign=top;spacingLeft=4;spacingRight=4;overflow=hidden;rotatable=0;points=[[0,0.5],[1,0.5]];portConstraint=eastwest;whiteSpace=wrap;html=1;" parent="7OrvbcCntl593sybiv5M-243" vertex="1">
          <mxGeometry y="52" width="160" height="26" as="geometry" />
        </mxCell>
        <mxCell id="7OrvbcCntl593sybiv5M-247" value="IFlyBehavior" style="swimlane;fontStyle=1;align=center;verticalAlign=top;childLayout=stackLayout;horizontal=1;startSize=26;horizontalStack=0;resizeParent=1;resizeParentMax=0;resizeLast=0;collapsible=1;marginBottom=0;whiteSpace=wrap;html=1;" parent="1" vertex="1">
          <mxGeometry x="520" y="3257" width="160" height="78" as="geometry" />
        </mxCell>
        <mxCell id="7OrvbcCntl593sybiv5M-248" value="Fly()" style="text;strokeColor=none;fillColor=none;align=left;verticalAlign=top;spacingLeft=4;spacingRight=4;overflow=hidden;rotatable=0;points=[[0,0.5],[1,0.5]];portConstraint=eastwest;whiteSpace=wrap;html=1;" parent="7OrvbcCntl593sybiv5M-247" vertex="1">
          <mxGeometry y="26" width="160" height="26" as="geometry" />
        </mxCell>
        <mxCell id="7OrvbcCntl593sybiv5M-255" value="CanFly()" style="text;strokeColor=none;fillColor=none;align=left;verticalAlign=top;spacingLeft=4;spacingRight=4;overflow=hidden;rotatable=0;points=[[0,0.5],[1,0.5]];portConstraint=eastwest;whiteSpace=wrap;html=1;" parent="7OrvbcCntl593sybiv5M-247" vertex="1">
          <mxGeometry y="52" width="160" height="26" as="geometry" />
        </mxCell>
        <mxCell id="7OrvbcCntl593sybiv5M-252" value="" style="endArrow=diamondThin;endFill=1;endSize=24;html=1;rounded=0;" parent="1" source="7OrvbcCntl593sybiv5M-247" target="7OrvbcCntl593sybiv5M-243" edge="1">
          <mxGeometry width="160" relative="1" as="geometry">
            <mxPoint x="380" y="3450" as="sourcePoint" />
            <mxPoint x="540" y="3450" as="targetPoint" />
          </mxGeometry>
        </mxCell>
      </root>
    </mxGraphModel>
  </diagram>
</mxfile>
